; Drill file
; Format: 3.2 (000.00)
M48
METRIC
T01C0.9
%
G05
G90
T01
X00349Y04889
X00603Y04889
X00603Y05143
X00349Y05143
X00349Y05397
X00603Y05397
X00603Y05651
X00603Y05905
X00603Y06159
X00603Y06413
X00603Y06667
X00349Y06667
X00349Y06413
X00349Y06159
X00349Y05905
X00349Y05651
X01038Y06245
X01038Y06689
X00603Y06921
X00603Y07175
X00349Y07175
X00349Y07429
X00603Y07429
X00603Y07683
X00603Y07937
X00603Y08191
X00349Y08191
X00349Y08445
X00349Y08699
X00603Y08699
X00603Y08445
X01038Y08276
X01038Y07832
X01611Y07832
X02054Y07832
X02054Y08276
X01610Y08276
X02626Y08276
X02627Y07832
X02626Y06689
X02627Y06245
X02054Y06245
X01611Y06245
X01610Y06689
X02054Y06689
X00349Y06921
X00349Y07683
X00349Y07937
X00349Y08953
X00349Y09207
X00603Y09207
X00603Y08953
X00857Y09715
X01111Y09715
X01365Y09715
X01619Y09715
X01873Y09715
X02127Y09715
X02381Y09715
X02635Y09715
X03143Y09715
X03397Y09715
X03651Y09715
X03905Y09715
X04159Y09715
X04413Y09715
X04667Y09715
X04921Y09715
X05429Y09715
X05683Y09715
X05937Y09715
X06191Y09715
X06445Y09715
X06699Y09715
X06499Y08880
X06499Y08626
X06499Y08372
X06499Y08118
X06499Y07864
X06499Y07610
X05864Y07641
X05864Y07387
X05864Y07133
X05864Y06879
X06309Y06657
X06309Y06403
X06309Y06149
X06309Y05895
X06309Y05641
X06309Y05387
X06318Y04889
X06064Y04889
X05810Y04889
X05429Y04889
X05175Y04889
X04921Y04889
X04667Y04889
X04413Y04889
X04159Y04889
X03905Y04889
X03651Y04889
X03143Y04889
X02889Y04889
X02635Y04889
X02381Y04889
X02127Y04889
X01873Y04889
X01619Y04889
X01365Y04889
X06572Y04889
X06826Y04889
X07080Y04889
X07334Y04889
X07588Y04889
X07842Y04889
X08096Y04889
X05896Y08181
X05896Y08403
X05896Y08626
X05896Y08848
X05451Y08403
M30
