%FSLAX34Y34*%
%MOMM*%
%LNCOPPER_TOP*%
G71*
G01*
%ADD10C, 1.80*%
%ADD11C, 1.90*%
%ADD12C, 2.20*%
%ADD13C, 2.90*%
%ADD14R, 1.80X1.30*%
%ADD15C, 1.00*%
%ADD16C, 0.70*%
%LPD*%
X34925Y717549D02*
G54D10*
D03*
X60325Y717549D02*
G54D10*
D03*
X34925Y742949D02*
G54D10*
D03*
X60324Y742949D02*
G54D10*
D03*
X34925Y768349D02*
G54D10*
D03*
X60325Y768349D02*
G54D10*
D03*
X34925Y793749D02*
G54D10*
D03*
X60325Y793749D02*
G54D10*
D03*
X34925Y819149D02*
G54D10*
D03*
X60325Y819149D02*
G54D10*
D03*
X34925Y844549D02*
G54D10*
D03*
X60325Y844549D02*
G54D10*
D03*
X34925Y869949D02*
G54D10*
D03*
X60325Y869949D02*
G54D10*
D03*
X34925Y920749D02*
G54D10*
D03*
X60325Y920749D02*
G54D10*
D03*
X34925Y615949D02*
G54D10*
D03*
X60325Y615949D02*
G54D10*
D03*
X34925Y641349D02*
G54D10*
D03*
X60325Y641349D02*
G54D10*
D03*
X34925Y666749D02*
G54D10*
D03*
X60325Y666749D02*
G54D10*
D03*
X34925Y692149D02*
G54D10*
D03*
X60325Y692149D02*
G54D10*
D03*
X34925Y514349D02*
G54D10*
D03*
X60325Y514349D02*
G54D10*
D03*
X34925Y539749D02*
G54D10*
D03*
X60325Y539749D02*
G54D10*
D03*
X34925Y565149D02*
G54D10*
D03*
X60325Y565149D02*
G54D10*
D03*
X34925Y590549D02*
G54D10*
D03*
X60325Y590549D02*
G54D10*
D03*
X238125Y488949D02*
G54D10*
D03*
X263525Y488949D02*
G54D10*
D03*
X288925Y488949D02*
G54D10*
D03*
X314325Y488949D02*
G54D10*
D03*
X136525Y488949D02*
G54D10*
D03*
X161925Y488949D02*
G54D10*
D03*
X187325Y488949D02*
G54D10*
D03*
X212725Y488949D02*
G54D10*
D03*
X187325Y971549D02*
G54D10*
D03*
X212725Y971549D02*
G54D10*
D03*
X238125Y971549D02*
G54D10*
D03*
X263525Y971549D02*
G54D10*
D03*
X85725Y971549D02*
G54D10*
D03*
X111125Y971549D02*
G54D10*
D03*
X136525Y971549D02*
G54D10*
D03*
X161925Y971549D02*
G54D10*
D03*
X466725Y488949D02*
G54D10*
D03*
X492125Y488949D02*
G54D10*
D03*
X517525Y488949D02*
G54D10*
D03*
X542925Y488949D02*
G54D10*
D03*
X365125Y488949D02*
G54D10*
D03*
X390525Y488949D02*
G54D10*
D03*
X415925Y488949D02*
G54D10*
D03*
X441325Y488949D02*
G54D10*
D03*
X682625Y488949D02*
G54D10*
D03*
X708025Y488949D02*
G54D10*
D03*
X733425Y488949D02*
G54D10*
D03*
X758825Y488949D02*
G54D10*
D03*
X581025Y488949D02*
G54D10*
D03*
X606425Y488949D02*
G54D10*
D03*
X631825Y488949D02*
G54D10*
D03*
X657225Y488949D02*
G54D10*
D03*
X415925Y971549D02*
G54D10*
D03*
X441325Y971549D02*
G54D10*
D03*
X466725Y971549D02*
G54D10*
D03*
X492125Y971549D02*
G54D10*
D03*
X314325Y971549D02*
G54D10*
D03*
X339725Y971549D02*
G54D10*
D03*
X365125Y971549D02*
G54D10*
D03*
X390525Y971549D02*
G54D10*
D03*
X644525Y971549D02*
G54D10*
D03*
X669925Y971549D02*
G54D10*
D03*
X542925Y971549D02*
G54D10*
D03*
X568325Y971549D02*
G54D10*
D03*
X593725Y971549D02*
G54D10*
D03*
X619125Y971549D02*
G54D10*
D03*
X34925Y895349D02*
G54D10*
D03*
X60325Y895349D02*
G54D10*
D03*
X34925Y488949D02*
G54D10*
D03*
X60325Y488949D02*
G54D10*
D03*
X784225Y488949D02*
G54D11*
D03*
X809625Y488949D02*
G54D11*
D03*
X586414Y764126D02*
G54D12*
D03*
X586414Y738726D02*
G54D12*
D03*
X586414Y713326D02*
G54D12*
D03*
X586414Y687926D02*
G54D12*
D03*
X262564Y827626D02*
G54D13*
D03*
X262664Y783226D02*
G54D13*
D03*
X205364Y783226D02*
G54D13*
D03*
X205364Y827626D02*
G54D13*
D03*
X262564Y668876D02*
G54D13*
D03*
X262664Y624476D02*
G54D13*
D03*
X205364Y624476D02*
G54D13*
D03*
X205364Y668876D02*
G54D13*
D03*
X160964Y827626D02*
G54D13*
D03*
X161064Y783226D02*
G54D13*
D03*
X103764Y783226D02*
G54D13*
D03*
X103764Y827626D02*
G54D13*
D03*
X160964Y668876D02*
G54D13*
D03*
X161064Y624476D02*
G54D13*
D03*
X103764Y624476D02*
G54D13*
D03*
X103764Y668876D02*
G54D13*
D03*
X630864Y665701D02*
G54D12*
D03*
X630864Y640301D02*
G54D12*
D03*
X630864Y614901D02*
G54D12*
D03*
X630864Y589501D02*
G54D12*
D03*
X630864Y564101D02*
G54D12*
D03*
X630864Y538701D02*
G54D12*
D03*
X649914Y887951D02*
G54D12*
D03*
X649914Y862551D02*
G54D12*
D03*
X649914Y837151D02*
G54D12*
D03*
X649914Y811751D02*
G54D12*
D03*
X649914Y786351D02*
G54D12*
D03*
X649914Y760951D02*
G54D12*
D03*
X221289Y741901D02*
G54D14*
D03*
X221389Y709401D02*
G54D14*
D03*
X195889Y741901D02*
G54D14*
D03*
X195989Y709401D02*
G54D14*
D03*
X170489Y741901D02*
G54D14*
D03*
X170589Y709401D02*
G54D14*
D03*
X145089Y741901D02*
G54D14*
D03*
X145189Y709401D02*
G54D14*
D03*
G54D15*
X170589Y709401D02*
X170589Y678501D01*
X160964Y668876D01*
G54D16*
X492125Y488949D02*
X492125Y744115D01*
X453064Y783176D01*
X262714Y783176D01*
X262664Y783226D01*
G54D16*
X262564Y668876D02*
X434014Y668876D01*
X468939Y633951D01*
X468939Y491164D01*
X466725Y488949D01*
G54D16*
X160964Y668876D02*
X170489Y668876D01*
X183189Y656176D01*
X183189Y608551D01*
X202239Y589501D01*
X421314Y589501D01*
X440364Y570451D01*
X440364Y489909D01*
X441325Y488949D01*
G54D16*
X145189Y709401D02*
X129214Y694276D01*
X129214Y576801D01*
X135564Y570451D01*
X395914Y570451D01*
X414964Y551401D01*
X414964Y489909D01*
X415925Y488949D01*
G54D15*
X103764Y783226D02*
X103764Y722901D01*
X116514Y710151D01*
X144439Y710151D01*
X145189Y709401D01*
G54D16*
X145089Y741901D02*
X221289Y741901D01*
G54D15*
X619125Y971549D02*
X619125Y791740D01*
X624514Y786351D01*
X649914Y786351D01*
G54D15*
X649914Y786351D02*
X627689Y786351D01*
X618164Y776826D01*
X618164Y738726D01*
X586414Y738726D01*
G54D16*
X586414Y738726D02*
X519739Y738726D01*
X453064Y805401D01*
X186364Y805401D01*
X183189Y802226D01*
X183189Y746001D01*
X188089Y741101D01*
G54D15*
X649914Y786351D02*
X665789Y786351D01*
X678489Y773651D01*
X678489Y653001D01*
X665789Y640301D01*
X630864Y640301D01*
X589589Y818101D02*
G54D11*
D03*
X589589Y840331D02*
G54D11*
D03*
X589589Y862551D02*
G54D11*
D03*
X589589Y884781D02*
G54D11*
D03*
G54D16*
X589589Y884776D02*
X154614Y884776D01*
X100639Y938751D01*
X27614Y938751D01*
X14914Y926051D01*
X14914Y915359D01*
X34925Y895349D01*
G54D16*
X589589Y862551D02*
X576889Y862551D01*
X567364Y872076D01*
X148264Y872076D01*
X126039Y894301D01*
X61373Y894301D01*
X60325Y895349D01*
G54D16*
X589589Y818101D02*
X522914Y818101D01*
X487989Y853026D01*
X97464Y853026D01*
X81589Y868901D01*
X61373Y868901D01*
X60325Y869949D01*
X545139Y840326D02*
G54D10*
D03*
G54D16*
X589589Y840326D02*
X545139Y840326D01*
G54D15*
X221389Y709401D02*
X230064Y709401D01*
X262564Y741901D01*
X262564Y783126D01*
X262664Y783226D01*
G54D15*
X195989Y709401D02*
X195989Y678251D01*
X205364Y668876D01*
X262564Y668876D01*
G54D15*
X205364Y783226D02*
X262664Y783226D01*
G54D15*
X103764Y783226D02*
X161064Y783226D01*
M02*
