%FSLAX34Y34*%
%MOMM*%
%LNCOPPER_BOTTOM*%
G71*
G01*
%ADD10C, 0.10*%
%ADD11C, 0.11*%
%ADD12C, 0.17*%
%ADD13C, 0.28*%
%ADD14C, 0.21*%
%ADD15C, 0.20*%
%ADD16C, 0.50*%
%ADD17C, 0.00*%
%ADD18C, 0.04*%
%ADD19C, 0.22*%
%LPD*%
G54D10*
X22225Y730249D02*
X22225Y704849D01*
X47625Y704849D01*
X47625Y730249D01*
X22225Y730249D01*
G54D10*
X47625Y730249D02*
X47625Y704849D01*
X73025Y704849D01*
X73025Y730249D01*
X47625Y730249D01*
G54D10*
X22225Y755649D02*
X22225Y730249D01*
X47625Y730249D01*
X47625Y755649D01*
X22225Y755649D01*
G54D10*
X47625Y755649D02*
X47625Y730249D01*
X73025Y730249D01*
X73025Y755649D01*
X47625Y755649D01*
G54D10*
X22225Y781049D02*
X22225Y755649D01*
X47625Y755649D01*
X47625Y781049D01*
X22225Y781049D01*
G54D10*
X47625Y781049D02*
X47625Y755649D01*
X73025Y755649D01*
X73025Y781049D01*
X47625Y781049D01*
G54D10*
X22225Y806449D02*
X22225Y781049D01*
X47625Y781049D01*
X47625Y806449D01*
X22225Y806449D01*
G54D10*
X47625Y806449D02*
X47625Y781049D01*
X73025Y781049D01*
X73025Y806449D01*
X47625Y806449D01*
G54D10*
X22225Y831849D02*
X22225Y806449D01*
X47625Y806449D01*
X47625Y831849D01*
X22225Y831849D01*
G54D10*
X47625Y831849D02*
X47625Y806449D01*
X73025Y806449D01*
X73025Y831849D01*
X47625Y831849D01*
G54D10*
X22225Y857249D02*
X22225Y831849D01*
X47625Y831849D01*
X47625Y857249D01*
X22225Y857249D01*
G54D10*
X47625Y857249D02*
X47625Y831849D01*
X73025Y831849D01*
X73025Y857249D01*
X47625Y857249D01*
G54D10*
X22225Y882649D02*
X22225Y857249D01*
X47625Y857249D01*
X47625Y882649D01*
X22225Y882649D01*
G54D10*
X47625Y882649D02*
X47625Y857249D01*
X73025Y857249D01*
X73025Y882649D01*
X47625Y882649D01*
G54D10*
X22225Y933449D02*
X22225Y908049D01*
X47625Y908049D01*
X47625Y933449D01*
X22225Y933449D01*
G54D10*
X47625Y933449D02*
X47625Y908049D01*
X73025Y908049D01*
X73025Y933449D01*
X47625Y933449D01*
G54D10*
X22225Y628649D02*
X22225Y603249D01*
X47625Y603249D01*
X47625Y628649D01*
X22225Y628649D01*
G54D10*
X47625Y628649D02*
X47625Y603249D01*
X73025Y603249D01*
X73025Y628649D01*
X47625Y628649D01*
G54D10*
X22225Y654049D02*
X22225Y628649D01*
X47625Y628649D01*
X47625Y654049D01*
X22225Y654049D01*
G54D10*
X47625Y654049D02*
X47625Y628649D01*
X73025Y628649D01*
X73025Y654049D01*
X47625Y654049D01*
G54D10*
X22225Y679449D02*
X22225Y654049D01*
X47625Y654049D01*
X47625Y679449D01*
X22225Y679449D01*
G54D10*
X47625Y679449D02*
X47625Y654049D01*
X73025Y654049D01*
X73025Y679449D01*
X47625Y679449D01*
G54D10*
X22225Y704849D02*
X22225Y679449D01*
X47625Y679449D01*
X47625Y704849D01*
X22225Y704849D01*
G54D10*
X47625Y704849D02*
X47625Y679449D01*
X73025Y679449D01*
X73025Y704849D01*
X47625Y704849D01*
G54D10*
X22225Y527049D02*
X22225Y501649D01*
X47625Y501649D01*
X47625Y527049D01*
X22225Y527049D01*
G54D10*
X47625Y527049D02*
X47625Y501649D01*
X73025Y501649D01*
X73025Y527049D01*
X47625Y527049D01*
G54D10*
X22225Y552449D02*
X22225Y527049D01*
X47625Y527049D01*
X47625Y552449D01*
X22225Y552449D01*
G54D10*
X47625Y552449D02*
X47625Y527049D01*
X73025Y527049D01*
X73025Y552449D01*
X47625Y552449D01*
G54D10*
X22225Y577849D02*
X22225Y552449D01*
X47625Y552449D01*
X47625Y577849D01*
X22225Y577849D01*
G54D10*
X47625Y577849D02*
X47625Y552449D01*
X73025Y552449D01*
X73025Y577849D01*
X47625Y577849D01*
G54D10*
X22225Y603249D02*
X22225Y577849D01*
X47625Y577849D01*
X47625Y603249D01*
X22225Y603249D01*
G54D10*
X47625Y603249D02*
X47625Y577849D01*
X73025Y577849D01*
X73025Y603249D01*
X47625Y603249D01*
G54D10*
X250825Y501649D02*
X225425Y501649D01*
X225425Y476249D01*
X250825Y476249D01*
X250825Y501649D01*
G54D10*
X276225Y501649D02*
X250825Y501649D01*
X250825Y476249D01*
X276225Y476249D01*
X276225Y501649D01*
G54D10*
X301625Y501649D02*
X276225Y501649D01*
X276225Y476249D01*
X301625Y476249D01*
X301625Y501649D01*
G54D10*
X327025Y501649D02*
X301625Y501649D01*
X301625Y476249D01*
X327025Y476249D01*
X327025Y501649D01*
G54D10*
X149225Y501649D02*
X123825Y501649D01*
X123825Y476249D01*
X149225Y476249D01*
X149225Y501649D01*
G54D10*
X174625Y501649D02*
X149225Y501649D01*
X149225Y476249D01*
X174625Y476249D01*
X174625Y501649D01*
G54D10*
X200025Y501649D02*
X174625Y501649D01*
X174625Y476249D01*
X200025Y476249D01*
X200025Y501649D01*
G54D10*
X225425Y501649D02*
X200025Y501649D01*
X200025Y476249D01*
X225425Y476249D01*
X225425Y501649D01*
G54D10*
X200025Y984249D02*
X174625Y984249D01*
X174625Y958849D01*
X200025Y958849D01*
X200025Y984249D01*
G54D10*
X225425Y984249D02*
X200025Y984249D01*
X200025Y958849D01*
X225425Y958849D01*
X225425Y984249D01*
G54D10*
X250825Y984249D02*
X225425Y984249D01*
X225425Y958849D01*
X250825Y958849D01*
X250825Y984249D01*
G54D10*
X276225Y984249D02*
X250825Y984249D01*
X250825Y958849D01*
X276225Y958849D01*
X276225Y984249D01*
G54D10*
X98425Y984249D02*
X73025Y984249D01*
X73025Y958849D01*
X98425Y958849D01*
X98425Y984249D01*
G54D10*
X123825Y984249D02*
X98425Y984249D01*
X98425Y958849D01*
X123825Y958849D01*
X123825Y984249D01*
G54D10*
X149225Y984249D02*
X123825Y984249D01*
X123825Y958849D01*
X149224Y958849D01*
X149225Y984249D01*
G54D10*
X174625Y984249D02*
X149225Y984249D01*
X149224Y958849D01*
X174625Y958849D01*
X174625Y984249D01*
G54D10*
X479425Y501649D02*
X454025Y501649D01*
X454025Y476249D01*
X479425Y476249D01*
X479425Y501649D01*
G54D10*
X504825Y501649D02*
X479425Y501649D01*
X479425Y476249D01*
X504825Y476249D01*
X504825Y501649D01*
G54D10*
X530225Y501649D02*
X504825Y501649D01*
X504825Y476249D01*
X530225Y476249D01*
X530225Y501649D01*
G54D10*
X555625Y501649D02*
X530225Y501649D01*
X530225Y476249D01*
X555625Y476249D01*
X555625Y501649D01*
G54D10*
X377825Y501649D02*
X352425Y501649D01*
X352425Y476249D01*
X377825Y476249D01*
X377825Y501649D01*
G54D10*
X403225Y501649D02*
X377825Y501649D01*
X377825Y476249D01*
X403225Y476249D01*
X403225Y501649D01*
G54D10*
X428625Y501649D02*
X403225Y501649D01*
X403225Y476249D01*
X428625Y476249D01*
X428625Y501649D01*
G54D10*
X454025Y501649D02*
X428625Y501649D01*
X428625Y476249D01*
X454025Y476249D01*
X454025Y501649D01*
G54D10*
X695325Y501649D02*
X669925Y501649D01*
X669925Y476249D01*
X695325Y476249D01*
X695325Y501649D01*
G54D10*
X720725Y501649D02*
X695325Y501649D01*
X695325Y476249D01*
X720725Y476249D01*
X720725Y501649D01*
G54D10*
X746125Y501649D02*
X720725Y501649D01*
X720725Y476249D01*
X746125Y476249D01*
X746125Y501649D01*
G54D10*
X771525Y501649D02*
X746125Y501649D01*
X746125Y476249D01*
X771525Y476249D01*
X771525Y501649D01*
G54D10*
X593725Y501649D02*
X568325Y501649D01*
X568325Y476249D01*
X593725Y476249D01*
X593725Y501649D01*
G54D10*
X619125Y501649D02*
X593725Y501649D01*
X593725Y476249D01*
X619125Y476249D01*
X619125Y501649D01*
G54D10*
X644525Y501649D02*
X619125Y501649D01*
X619125Y476249D01*
X644525Y476249D01*
X644525Y501649D01*
G54D10*
X669925Y501649D02*
X644525Y501649D01*
X644525Y476249D01*
X669925Y476249D01*
X669925Y501649D01*
G54D10*
X428625Y984249D02*
X403225Y984249D01*
X403225Y958849D01*
X428625Y958849D01*
X428625Y984249D01*
G54D10*
X454024Y984249D02*
X428625Y984249D01*
X428625Y958849D01*
X454025Y958849D01*
X454024Y984249D01*
G54D10*
X479425Y984249D02*
X454024Y984249D01*
X454025Y958849D01*
X479425Y958849D01*
X479425Y984249D01*
G54D10*
X504825Y984249D02*
X479425Y984249D01*
X479425Y958849D01*
X504825Y958849D01*
X504825Y984249D01*
G54D10*
X327025Y984249D02*
X301625Y984249D01*
X301625Y958849D01*
X327025Y958849D01*
X327025Y984249D01*
G54D10*
X352425Y984249D02*
X327025Y984249D01*
X327025Y958849D01*
X352425Y958849D01*
X352425Y984249D01*
G54D10*
X377825Y984249D02*
X352425Y984249D01*
X352425Y958849D01*
X377825Y958849D01*
X377825Y984249D01*
G54D10*
X403225Y984249D02*
X377825Y984249D01*
X377825Y958849D01*
X403225Y958849D01*
X403225Y984249D01*
G54D10*
X657225Y984249D02*
X631825Y984249D01*
X631825Y958849D01*
X657225Y958849D01*
X657225Y984249D01*
G54D10*
X682625Y984249D02*
X657225Y984249D01*
X657225Y958849D01*
X682625Y958849D01*
X682625Y984249D01*
G54D10*
X555625Y984249D02*
X530225Y984249D01*
X530225Y958849D01*
X555625Y958849D01*
X555625Y984249D01*
G54D10*
X581025Y984249D02*
X555625Y984249D01*
X555625Y958849D01*
X581025Y958849D01*
X581025Y984249D01*
G54D10*
X606425Y984249D02*
X581025Y984249D01*
X581025Y958849D01*
X606425Y958849D01*
X606425Y984249D01*
G54D10*
X631825Y984249D02*
X606425Y984249D01*
X606425Y958849D01*
X631825Y958849D01*
X631825Y984249D01*
G54D10*
X22225Y908049D02*
X22225Y882649D01*
X47625Y882649D01*
X47625Y908049D01*
X22225Y908049D01*
G54D10*
X47625Y908049D02*
X47625Y882649D01*
X73025Y882649D01*
X73025Y908049D01*
X47625Y908049D01*
G54D10*
X22225Y501649D02*
X22225Y476249D01*
X47625Y476249D01*
X47625Y501649D01*
X22225Y501649D01*
G54D10*
X47625Y501649D02*
X47625Y476249D01*
X73025Y476249D01*
X73025Y501649D01*
X47625Y501649D01*
G54D11*
X754025Y536779D02*
X762914Y533446D01*
X754025Y530112D01*
G54D11*
X757358Y535446D02*
X757358Y531446D01*
G54D11*
X758469Y525001D02*
X757358Y523001D01*
X756247Y522335D01*
X754025Y522335D01*
G54D11*
X754025Y527668D02*
X762914Y527668D01*
X762914Y524334D01*
X762358Y523001D01*
X761247Y522334D01*
X760136Y522335D01*
X759025Y523001D01*
X758469Y524334D01*
X758469Y527668D01*
G54D11*
X754025Y515224D02*
X754025Y519891D01*
X762914Y519891D01*
X762914Y515224D01*
G54D11*
X758469Y519891D02*
X758469Y515224D01*
G54D11*
X754025Y512780D02*
X762914Y512780D01*
X762914Y508113D01*
G54D11*
X758469Y512780D02*
X758469Y508113D01*
G54D11*
X732719Y525002D02*
X732719Y522335D01*
X729941Y522336D01*
X728830Y523002D01*
X728275Y524336D01*
X728275Y525669D01*
X728830Y527002D01*
X729941Y527669D01*
X735497Y527669D01*
X736608Y527002D01*
X737164Y525669D01*
X737164Y524336D01*
X736608Y523002D01*
X735497Y522336D01*
G54D11*
X728275Y519892D02*
X737164Y519892D01*
X728275Y514558D01*
X737164Y514559D01*
G54D11*
X728275Y512115D02*
X737164Y512115D01*
X737164Y508782D01*
X736608Y507448D01*
X735497Y506781D01*
X729941Y506782D01*
X728830Y507448D01*
X728275Y508782D01*
X728275Y512115D01*
G54D11*
X364389Y546272D02*
X363278Y544272D01*
X362167Y543606D01*
X359945Y543606D01*
G54D11*
X359945Y548939D02*
X368834Y548939D01*
X368833Y545606D01*
X368278Y544272D01*
X367167Y543606D01*
X366056Y543606D01*
X364945Y544272D01*
X364389Y545606D01*
X364389Y548939D01*
G54D11*
X368833Y541162D02*
X359945Y534495D01*
G54D11*
X359945Y541162D02*
X368833Y534495D01*
G54D11*
X367167Y526718D02*
X361611Y526718D01*
X360500Y527384D01*
X359945Y528718D01*
X359945Y530051D01*
X360500Y531384D01*
X361611Y532051D01*
X367167Y532051D01*
X368278Y531384D01*
X368833Y530051D01*
X368833Y528718D01*
X368278Y527384D01*
X367167Y526718D01*
G54D11*
X363833Y524274D02*
X366056Y518941D01*
G54D11*
X363833Y524274D02*
X361611Y518941D01*
G54D11*
X367167Y506010D02*
X361611Y506010D01*
X360500Y506676D01*
X359945Y508010D01*
X359945Y509343D01*
X360500Y510676D01*
X361611Y511343D01*
X367167Y511343D01*
X368278Y510676D01*
X368834Y509343D01*
X368833Y508010D01*
X368278Y506676D01*
X367167Y506010D01*
G54D11*
X385345Y545532D02*
X394234Y545532D01*
G54D11*
X394234Y548199D02*
X394234Y542866D01*
G54D11*
X394233Y540422D02*
X385345Y533755D01*
G54D11*
X385345Y540422D02*
X394234Y533755D01*
G54D11*
X392567Y525978D02*
X387011Y525978D01*
X385900Y526644D01*
X385345Y527978D01*
X385344Y529311D01*
X385900Y530644D01*
X387011Y531311D01*
X392567Y531311D01*
X393678Y530644D01*
X394234Y529311D01*
X394233Y527977D01*
X393678Y526644D01*
X392567Y525978D01*
G54D11*
X391456Y523534D02*
X389233Y518200D01*
G54D11*
X387011Y523534D02*
X389233Y518200D01*
G54D11*
X390900Y510603D02*
X394234Y507270D01*
X385345Y507270D01*
G54D11*
X412175Y506875D02*
X412175Y512209D01*
X412730Y512209D01*
X413841Y511542D01*
X417175Y507542D01*
X418286Y506876D01*
X419397Y506875D01*
X420508Y507542D01*
X421064Y508875D01*
X421064Y510209D01*
X420508Y511542D01*
X419397Y512209D01*
G54D11*
X444797Y512209D02*
X445908Y511542D01*
X446463Y510209D01*
X446464Y508876D01*
X445908Y507542D01*
X444797Y506875D01*
X443686Y506875D01*
X442575Y507542D01*
X442019Y508876D01*
X441464Y507542D01*
X440352Y506876D01*
X439241Y506876D01*
X438130Y507542D01*
X437575Y508876D01*
X437575Y510209D01*
X438130Y511542D01*
X439241Y512209D01*
G54D11*
X462975Y508209D02*
X471863Y508209D01*
X466308Y512209D01*
X465197Y512209D01*
X465197Y506876D01*
G54D11*
X497264Y506875D02*
X497264Y512209D01*
X493375Y512209D01*
X493375Y511542D01*
X493930Y510209D01*
X493930Y508876D01*
X493375Y507542D01*
X492264Y506876D01*
X490041Y506876D01*
X488930Y507542D01*
X488375Y508875D01*
X488375Y510209D01*
X488930Y511542D01*
X490041Y512209D01*
G54D11*
X520997Y506876D02*
X522108Y507542D01*
X522664Y508876D01*
X522664Y510209D01*
X522108Y511542D01*
X520997Y512209D01*
X518219Y512209D01*
X517664Y512209D01*
X518775Y510209D01*
X518775Y508876D01*
X518219Y507542D01*
X517108Y506876D01*
X515441Y506876D01*
X514330Y507542D01*
X513775Y508875D01*
X513775Y510209D01*
X514330Y511542D01*
X515441Y512209D01*
X518219Y512209D01*
G54D11*
X548064Y512209D02*
X548064Y506876D01*
X546952Y507542D01*
X545286Y508875D01*
X543064Y510209D01*
X541397Y510876D01*
X539175Y510876D01*
G54D11*
X579619Y509565D02*
X579619Y510899D01*
X580175Y512232D01*
X581286Y512899D01*
X582397Y512899D01*
X583508Y512232D01*
X584064Y510899D01*
X584064Y509565D01*
X583508Y508232D01*
X582397Y507566D01*
X581286Y507566D01*
X580175Y508232D01*
X579619Y509565D01*
X579064Y508232D01*
X577952Y507565D01*
X576841Y507565D01*
X575730Y508232D01*
X575175Y509566D01*
X575175Y510899D01*
X575730Y512232D01*
X576842Y512899D01*
X577952Y512899D01*
X579064Y512232D01*
X579619Y510899D01*
G54D11*
X602241Y512899D02*
X601130Y512232D01*
X600575Y510899D01*
X600575Y509566D01*
X601130Y508232D01*
X602241Y507566D01*
X605019Y507566D01*
X605575Y507566D01*
X604464Y509566D01*
X604464Y510899D01*
X605019Y512232D01*
X606130Y512899D01*
X607797Y512899D01*
X608908Y512232D01*
X609464Y510899D01*
X609464Y509566D01*
X608908Y508232D01*
X607797Y507566D01*
X605019Y507566D01*
G54D11*
X632580Y517859D02*
X635914Y514526D01*
X627025Y514526D01*
G54D11*
X634247Y506748D02*
X628691Y506748D01*
X627580Y507415D01*
X627025Y508748D01*
X627025Y510082D01*
X627580Y511415D01*
X628691Y512082D01*
X634247Y512082D01*
X635358Y511415D01*
X635914Y510082D01*
X635914Y508748D01*
X635358Y507415D01*
X634247Y506748D01*
G54D11*
X659030Y516659D02*
X662364Y513326D01*
X653475Y513325D01*
G54D11*
X659030Y510882D02*
X662364Y507548D01*
X653475Y507548D01*
G54D11*
X683380Y517509D02*
X686714Y514176D01*
X677825Y514176D01*
G54D11*
X677825Y506398D02*
X677825Y511732D01*
X678380Y511732D01*
X679491Y511065D01*
X682825Y507065D01*
X683936Y506398D01*
X685047Y506398D01*
X686158Y507065D01*
X686714Y508399D01*
X686714Y509732D01*
X686158Y511065D01*
X685047Y511732D01*
G54D11*
X708780Y517509D02*
X712114Y514176D01*
X703225Y514176D01*
G54D11*
X710447Y511732D02*
X711558Y511065D01*
X712114Y509732D01*
X712114Y508398D01*
X711558Y507065D01*
X710447Y506398D01*
X709336Y506398D01*
X708225Y507065D01*
X707669Y508398D01*
X707114Y507065D01*
X706002Y506398D01*
X704891Y506398D01*
X703780Y507065D01*
X703225Y508398D01*
X703225Y509732D01*
X703780Y511065D01*
X704891Y511732D01*
G54D11*
X309955Y543882D02*
X318843Y543882D01*
G54D11*
X318844Y546549D02*
X318843Y541215D01*
G54D11*
X318844Y538772D02*
X309955Y532105D01*
G54D11*
X309955Y538772D02*
X318843Y532105D01*
G54D11*
X317177Y529661D02*
X318288Y528994D01*
X318843Y527661D01*
X318844Y526328D01*
X318288Y524994D01*
X317177Y524328D01*
X316066Y524328D01*
X314955Y524994D01*
X314399Y526328D01*
X313844Y524994D01*
X312732Y524328D01*
X311621Y524327D01*
X310510Y524994D01*
X309955Y526328D01*
X309955Y527661D01*
X310510Y528994D01*
X311621Y529661D01*
G54D11*
X315510Y516730D02*
X318843Y513396D01*
X309955Y513396D01*
G54D11*
X309955Y506953D02*
X318843Y506953D01*
X313288Y510953D01*
X312177Y510953D01*
X312177Y505620D01*
G54D11*
X288309Y544612D02*
X287198Y542612D01*
X286087Y541945D01*
X283865Y541945D01*
G54D11*
X283865Y547279D02*
X292753Y547279D01*
X292753Y543945D01*
X292198Y542612D01*
X291087Y541945D01*
X289976Y541945D01*
X288865Y542612D01*
X288309Y543945D01*
X288309Y547279D01*
G54D11*
X292753Y539502D02*
X283865Y532835D01*
G54D11*
X283865Y539502D02*
X292753Y532835D01*
G54D11*
X291087Y530391D02*
X292198Y529724D01*
X292753Y528391D01*
X292753Y527057D01*
X292198Y525724D01*
X291087Y525058D01*
X289976Y525058D01*
X288865Y525724D01*
X288309Y527058D01*
X287753Y525724D01*
X286642Y525058D01*
X285531Y525058D01*
X284420Y525724D01*
X283865Y527058D01*
X283865Y528391D01*
X284420Y529724D01*
X285531Y530391D01*
G54D11*
X289420Y517460D02*
X292753Y514126D01*
X283865Y514126D01*
G54D11*
X292753Y506350D02*
X292753Y511683D01*
X288865Y511683D01*
X288865Y511016D01*
X289420Y509683D01*
X289420Y508349D01*
X288865Y507016D01*
X287753Y506350D01*
X285531Y506350D01*
X284420Y507016D01*
X283865Y508350D01*
X283865Y509683D01*
X284420Y511016D01*
X285531Y511683D01*
G54D11*
X258715Y544252D02*
X267604Y544252D01*
G54D11*
X267603Y546919D02*
X267604Y541585D01*
G54D11*
X267603Y539142D02*
X258715Y532475D01*
G54D11*
X258715Y539142D02*
X267604Y532475D01*
G54D11*
X258715Y524697D02*
X258715Y530031D01*
X259270Y530031D01*
X260381Y529364D01*
X263715Y525364D01*
X264826Y524698D01*
X265937Y524698D01*
X267048Y525364D01*
X267603Y526697D01*
X267604Y528031D01*
X267048Y529364D01*
X265937Y530031D01*
G54D11*
X264270Y517100D02*
X267604Y513766D01*
X258715Y513766D01*
G54D11*
X265937Y505989D02*
X267048Y506656D01*
X267603Y507989D01*
X267603Y509323D01*
X267048Y510656D01*
X265937Y511323D01*
X263159Y511323D01*
X262603Y511323D01*
X263715Y509323D01*
X263715Y507989D01*
X263159Y506656D01*
X262048Y505989D01*
X260381Y505989D01*
X259270Y506656D01*
X258715Y507989D01*
X258715Y509323D01*
X259270Y510656D01*
X260381Y511323D01*
X263159Y511323D01*
G54D11*
X237389Y544572D02*
X236278Y542572D01*
X235167Y541905D01*
X232945Y541905D01*
G54D11*
X232945Y547239D02*
X241833Y547239D01*
X241833Y543905D01*
X241278Y542572D01*
X240167Y541905D01*
X239056Y541905D01*
X237945Y542572D01*
X237389Y543905D01*
X237389Y547239D01*
G54D11*
X241833Y539462D02*
X232945Y532795D01*
G54D11*
X232945Y539462D02*
X241833Y532795D01*
G54D11*
X232945Y525017D02*
X232945Y530351D01*
X233500Y530351D01*
X234611Y529684D01*
X237945Y525684D01*
X239056Y525017D01*
X240167Y525017D01*
X241278Y525684D01*
X241833Y527017D01*
X241834Y528351D01*
X241278Y529684D01*
X240167Y530351D01*
G54D11*
X238500Y517420D02*
X241834Y514086D01*
X232945Y514086D01*
G54D11*
X241833Y511643D02*
X241834Y506309D01*
X240722Y506976D01*
X239056Y508309D01*
X236833Y509643D01*
X235167Y510309D01*
X232945Y510309D01*
G54D11*
X207545Y542572D02*
X216433Y542572D01*
G54D11*
X216433Y545239D02*
X216433Y539905D01*
G54D11*
X216433Y537462D02*
X207545Y530795D01*
G54D11*
X207545Y537462D02*
X216433Y530795D01*
G54D11*
X213100Y528351D02*
X216433Y525017D01*
X207545Y525017D01*
G54D11*
X213100Y517420D02*
X216433Y514086D01*
X207545Y514086D01*
G54D11*
X211989Y508310D02*
X211989Y509643D01*
X212545Y510976D01*
X213655Y511643D01*
X214767Y511643D01*
X215878Y510976D01*
X216433Y509643D01*
X216433Y508309D01*
X215878Y506976D01*
X214767Y506309D01*
X213656Y506309D01*
X212545Y506976D01*
X211989Y508310D01*
X211433Y506976D01*
X210322Y506309D01*
X209211Y506309D01*
X208100Y506976D01*
X207545Y508309D01*
X207545Y509643D01*
X208100Y510976D01*
X209211Y511643D01*
X210322Y511643D01*
X211433Y510976D01*
X211989Y509643D01*
G54D11*
X186589Y542572D02*
X185478Y540572D01*
X184367Y539905D01*
X182145Y539905D01*
G54D11*
X182145Y545239D02*
X191033Y545239D01*
X191033Y541905D01*
X190478Y540572D01*
X189367Y539905D01*
X188256Y539905D01*
X187145Y540572D01*
X186589Y541905D01*
X186589Y545239D01*
G54D11*
X191033Y537462D02*
X182145Y530795D01*
G54D11*
X182145Y537462D02*
X191034Y530795D01*
G54D11*
X187700Y528351D02*
X191033Y525017D01*
X182145Y525017D01*
G54D11*
X187700Y517420D02*
X191033Y514086D01*
X182145Y514086D01*
G54D11*
X183811Y511643D02*
X182700Y510976D01*
X182145Y509643D01*
X182145Y508309D01*
X182700Y506976D01*
X183811Y506309D01*
X186589Y506309D01*
X187145Y506309D01*
X186034Y508309D01*
X186033Y509643D01*
X186589Y510976D01*
X187700Y511643D01*
X189367Y511643D01*
X190478Y510976D01*
X191033Y509643D01*
X191034Y508309D01*
X190478Y506976D01*
X189367Y506309D01*
X186589Y506309D01*
G54D11*
X159811Y549379D02*
X158700Y548712D01*
X158145Y547379D01*
X158145Y546045D01*
X158700Y544712D01*
X159811Y544045D01*
X160922Y544045D01*
X162034Y544712D01*
X162589Y546045D01*
X162589Y547379D01*
X163145Y548712D01*
X164256Y549379D01*
X165367Y549379D01*
X166478Y548712D01*
X167034Y547379D01*
X167033Y546045D01*
X166478Y544712D01*
X165367Y544045D01*
G54D11*
X158145Y541602D02*
X167034Y541602D01*
X167033Y538268D01*
X166478Y536935D01*
X165367Y536268D01*
X159811Y536268D01*
X158700Y536935D01*
X158145Y538268D01*
X158145Y541602D01*
G54D11*
X158145Y533825D02*
X167033Y530491D01*
X158145Y527158D01*
G54D11*
X161478Y532491D02*
X161478Y528491D01*
G54D11*
X158145Y514226D02*
X158145Y519560D01*
X158700Y519560D01*
X159811Y518893D01*
X163145Y514893D01*
X164256Y514226D01*
X165367Y514226D01*
X166478Y514893D01*
X167033Y516226D01*
X167034Y517560D01*
X166478Y518893D01*
X165367Y519560D01*
G54D11*
X165367Y506449D02*
X159811Y506449D01*
X158700Y507116D01*
X158145Y508449D01*
X158145Y509783D01*
X158700Y511116D01*
X159811Y511783D01*
X165367Y511783D01*
X166478Y511116D01*
X167033Y509783D01*
X167033Y508449D01*
X166478Y507116D01*
X165367Y506449D01*
G54D11*
X133601Y545439D02*
X132490Y544772D01*
X131935Y543439D01*
X131935Y542105D01*
X132490Y540772D01*
X133601Y540105D01*
X134712Y540105D01*
X135824Y540772D01*
X136379Y542105D01*
X136379Y543439D01*
X136935Y544772D01*
X138046Y545439D01*
X139157Y545439D01*
X140268Y544772D01*
X140824Y543439D01*
X140823Y542105D01*
X140268Y540772D01*
X139157Y540105D01*
G54D11*
X133601Y532328D02*
X132490Y532995D01*
X131935Y534328D01*
X131935Y535662D01*
X132490Y536995D01*
X133601Y537662D01*
X139157Y537662D01*
X140268Y536995D01*
X140824Y535662D01*
X140824Y534328D01*
X140268Y532995D01*
X139157Y532328D01*
G54D11*
X140824Y529885D02*
X131935Y529885D01*
X131935Y525218D01*
G54D11*
X131935Y512286D02*
X131935Y517620D01*
X132490Y517620D01*
X133601Y516953D01*
X136935Y512953D01*
X138046Y512286D01*
X139157Y512286D01*
X140268Y512953D01*
X140823Y514286D01*
X140824Y515620D01*
X140268Y516953D01*
X139157Y517620D01*
G54D11*
X137490Y509843D02*
X140824Y506509D01*
X131935Y506509D01*
G54D11*
X83561Y518929D02*
X88895Y518929D01*
X88895Y518373D01*
X88228Y517262D01*
X84228Y513929D01*
X83561Y512818D01*
X83561Y511707D01*
X84228Y510595D01*
X85561Y510040D01*
X86895Y510040D01*
X88228Y510595D01*
X88895Y511706D01*
G54D11*
X75784Y518929D02*
X81118Y518929D01*
X81118Y518373D01*
X80451Y517262D01*
X76451Y513929D01*
X75784Y512818D01*
X75784Y511706D01*
X76451Y510595D01*
X77784Y510040D01*
X79118Y510040D01*
X80451Y510595D01*
X81118Y511706D01*
G54D11*
X83561Y544329D02*
X88894Y544329D01*
X88895Y543773D01*
X88228Y542662D01*
X84228Y539329D01*
X83561Y538218D01*
X83561Y537107D01*
X84228Y535995D01*
X85561Y535440D01*
X86895Y535440D01*
X88228Y535995D01*
X88895Y537107D01*
G54D11*
X77118Y544329D02*
X77118Y535440D01*
X81118Y540995D01*
X81118Y542107D01*
X75784Y542107D01*
G54D11*
X83561Y569729D02*
X88895Y569729D01*
X88895Y569173D01*
X88228Y568062D01*
X84228Y564729D01*
X83561Y563618D01*
X83561Y562507D01*
X84228Y561395D01*
X85561Y560840D01*
X86895Y560840D01*
X88228Y561395D01*
X88895Y562506D01*
G54D11*
X75784Y562507D02*
X76451Y561395D01*
X77784Y560840D01*
X79118Y560840D01*
X80451Y561395D01*
X81118Y562507D01*
X81118Y565284D01*
X81118Y565840D01*
X79118Y564729D01*
X77784Y564729D01*
X76451Y565284D01*
X75784Y566395D01*
X75784Y568062D01*
X76451Y569173D01*
X77784Y569729D01*
X79118Y569729D01*
X80451Y569173D01*
X81118Y568062D01*
X81118Y565284D01*
G54D11*
X83561Y595129D02*
X88895Y595129D01*
X88895Y594573D01*
X88228Y593462D01*
X84228Y590129D01*
X83561Y589018D01*
X83561Y587906D01*
X84228Y586795D01*
X85561Y586240D01*
X86895Y586240D01*
X88228Y586796D01*
X88894Y587907D01*
G54D11*
X77784Y590684D02*
X79118Y590684D01*
X80451Y590129D01*
X81118Y589018D01*
X81118Y587907D01*
X80451Y586795D01*
X79118Y586240D01*
X77784Y586240D01*
X76451Y586795D01*
X75784Y587906D01*
X75784Y589018D01*
X76451Y590129D01*
X77784Y590684D01*
X76451Y591240D01*
X75784Y592351D01*
X75784Y593462D01*
X76451Y594573D01*
X77784Y595129D01*
X79118Y595129D01*
X80451Y594573D01*
X81118Y593462D01*
X81118Y592351D01*
X80451Y591240D01*
X79118Y590684D01*
G54D11*
X88895Y613306D02*
X88228Y612195D01*
X86895Y611640D01*
X85561Y611640D01*
X84228Y612195D01*
X83561Y613306D01*
X83561Y614418D01*
X84228Y615529D01*
X85561Y616084D01*
X84228Y616640D01*
X83561Y617751D01*
X83561Y618862D01*
X84228Y619973D01*
X85561Y620529D01*
X86895Y620529D01*
X88228Y619973D01*
X88895Y618862D01*
G54D11*
X75784Y613307D02*
X75784Y618862D01*
X76451Y619973D01*
X77784Y620529D01*
X79118Y620529D01*
X80451Y619973D01*
X81118Y618862D01*
X81118Y613306D01*
X80451Y612195D01*
X79118Y611640D01*
X77784Y611640D01*
X76451Y612196D01*
X75784Y613307D01*
G54D11*
X17565Y614287D02*
X16898Y613175D01*
X15565Y612620D01*
X14231Y612620D01*
X12898Y613176D01*
X12231Y614287D01*
X12231Y615398D01*
X12898Y616509D01*
X14231Y617064D01*
X12898Y617620D01*
X12231Y618731D01*
X12231Y619842D01*
X12898Y620953D01*
X14231Y621509D01*
X15565Y621509D01*
X16898Y620953D01*
X17565Y619842D01*
G54D11*
X9788Y615953D02*
X6454Y612620D01*
X6454Y621509D01*
G54D11*
X88895Y638706D02*
X88228Y637595D01*
X86895Y637040D01*
X85561Y637040D01*
X84228Y637595D01*
X83561Y638707D01*
X83561Y639818D01*
X84228Y640929D01*
X85561Y641484D01*
X84228Y642040D01*
X83561Y643151D01*
X83561Y644262D01*
X84228Y645373D01*
X85561Y645929D01*
X86895Y645929D01*
X88228Y645373D01*
X88895Y644262D01*
G54D11*
X75784Y645929D02*
X81118Y645929D01*
X81118Y645373D01*
X80451Y644262D01*
X76451Y640929D01*
X75784Y639818D01*
X75784Y638706D01*
X76451Y637595D01*
X77784Y637040D01*
X79118Y637040D01*
X80451Y637595D01*
X81118Y638707D01*
G54D11*
X17595Y638607D02*
X16928Y637496D01*
X15595Y636940D01*
X14261Y636940D01*
X12928Y637496D01*
X12261Y638607D01*
X12261Y639718D01*
X12928Y640829D01*
X14261Y641385D01*
X12928Y641940D01*
X12261Y643051D01*
X12261Y644162D01*
X12928Y645273D01*
X14261Y645829D01*
X15595Y645829D01*
X16928Y645273D01*
X17595Y644162D01*
G54D11*
X9818Y638607D02*
X9151Y637496D01*
X7818Y636940D01*
X6484Y636940D01*
X5151Y637496D01*
X4484Y638607D01*
X4484Y639718D01*
X5151Y640829D01*
X6484Y641384D01*
X5151Y641940D01*
X4484Y643051D01*
X4484Y644162D01*
X5151Y645273D01*
X6484Y645829D01*
X7818Y645829D01*
X9151Y645273D01*
X9818Y644162D01*
G54D11*
X88895Y664107D02*
X88228Y662995D01*
X86895Y662440D01*
X85561Y662440D01*
X84228Y662995D01*
X83561Y664106D01*
X83561Y665218D01*
X84228Y666329D01*
X85561Y666884D01*
X84228Y667440D01*
X83561Y668551D01*
X83561Y669662D01*
X84228Y670773D01*
X85561Y671329D01*
X86895Y671329D01*
X88228Y670773D01*
X88895Y669662D01*
G54D11*
X77118Y671329D02*
X77118Y662440D01*
X81118Y667995D01*
X81118Y669106D01*
X75784Y669107D01*
G54D11*
X17605Y664597D02*
X16938Y663486D01*
X15605Y662930D01*
X14271Y662930D01*
X12938Y663486D01*
X12271Y664597D01*
X12271Y665708D01*
X12938Y666819D01*
X14271Y667374D01*
X12938Y667930D01*
X12271Y669041D01*
X12271Y670152D01*
X12938Y671263D01*
X14271Y671819D01*
X15605Y671819D01*
X16938Y671263D01*
X17605Y670152D01*
G54D11*
X4494Y662930D02*
X9828Y662930D01*
X9828Y666819D01*
X9161Y666819D01*
X7828Y666263D01*
X6494Y666263D01*
X5161Y666819D01*
X4494Y667930D01*
X4494Y670152D01*
X5161Y671263D01*
X6494Y671819D01*
X7828Y671819D01*
X9161Y671263D01*
X9828Y670152D01*
G54D11*
X88895Y689507D02*
X88228Y688396D01*
X86895Y687840D01*
X85561Y687840D01*
X84228Y688395D01*
X83561Y689507D01*
X83561Y690618D01*
X84228Y691729D01*
X85561Y692284D01*
X84228Y692840D01*
X83561Y693951D01*
X83561Y695062D01*
X84228Y696173D01*
X85561Y696729D01*
X86895Y696729D01*
X88228Y696173D01*
X88895Y695062D01*
G54D11*
X75784Y689507D02*
X76451Y688396D01*
X77784Y687840D01*
X79118Y687840D01*
X80451Y688395D01*
X81118Y689507D01*
X81118Y692284D01*
X81118Y692840D01*
X79118Y691729D01*
X77784Y691729D01*
X76451Y692284D01*
X75784Y693396D01*
X75784Y695062D01*
X76451Y696173D01*
X77784Y696729D01*
X79118Y696729D01*
X80451Y696173D01*
X81118Y695062D01*
X81118Y692284D01*
G54D11*
X17485Y689747D02*
X16818Y688636D01*
X15485Y688080D01*
X14151Y688080D01*
X12818Y688636D01*
X12151Y689746D01*
X12151Y690858D01*
X12818Y691969D01*
X14151Y692524D01*
X12818Y693080D01*
X12151Y694191D01*
X12151Y695302D01*
X12818Y696413D01*
X14151Y696969D01*
X15485Y696969D01*
X16818Y696413D01*
X17485Y695302D01*
G54D11*
X9708Y688080D02*
X4374Y688080D01*
X5041Y689191D01*
X6374Y690858D01*
X7708Y693080D01*
X8374Y694747D01*
X8374Y696969D01*
G54D11*
X88895Y714907D02*
X88228Y713795D01*
X86895Y713240D01*
X85561Y713240D01*
X84228Y713795D01*
X83561Y714907D01*
X83561Y716018D01*
X84228Y717129D01*
X85561Y717684D01*
X84228Y718240D01*
X83561Y719351D01*
X83561Y720462D01*
X84228Y721573D01*
X85561Y722129D01*
X86895Y722129D01*
X88228Y721573D01*
X88895Y720462D01*
G54D11*
X77784Y717684D02*
X79118Y717684D01*
X80451Y717129D01*
X81118Y716018D01*
X81118Y714906D01*
X80451Y713796D01*
X79118Y713240D01*
X77784Y713240D01*
X76451Y713796D01*
X75784Y714907D01*
X75784Y716018D01*
X76451Y717129D01*
X77784Y717684D01*
X76451Y718240D01*
X75784Y719351D01*
X75784Y720462D01*
X76451Y721573D01*
X77784Y722129D01*
X79118Y722129D01*
X80451Y721573D01*
X81118Y720462D01*
X81118Y719351D01*
X80451Y718240D01*
X79118Y717684D01*
G54D11*
X17485Y715267D02*
X16818Y714156D01*
X15485Y713600D01*
X14151Y713600D01*
X12818Y714156D01*
X12151Y715267D01*
X12151Y716378D01*
X12818Y717489D01*
X14151Y718044D01*
X12818Y718600D01*
X12151Y719711D01*
X12151Y720822D01*
X12818Y721933D01*
X14151Y722489D01*
X15485Y722489D01*
X16818Y721933D01*
X17485Y720822D01*
G54D11*
X9708Y720822D02*
X9041Y721933D01*
X7708Y722489D01*
X6374Y722489D01*
X5041Y721933D01*
X4374Y720822D01*
X4374Y718044D01*
X4374Y717489D01*
X6374Y718600D01*
X7708Y718600D01*
X9041Y718044D01*
X9708Y716933D01*
X9708Y715267D01*
X9041Y714155D01*
X7708Y713600D01*
X6374Y713600D01*
X5041Y714156D01*
X4374Y715267D01*
X4374Y718044D01*
G54D11*
X84895Y747529D02*
X84895Y738640D01*
X88895Y744195D01*
X88895Y745306D01*
X83561Y745307D01*
G54D11*
X75784Y740307D02*
X75784Y745862D01*
X76451Y746973D01*
X77784Y747529D01*
X79118Y747529D01*
X80451Y746973D01*
X81118Y745862D01*
X81118Y740307D01*
X80451Y739196D01*
X79118Y738640D01*
X77784Y738640D01*
X76451Y739195D01*
X75784Y740307D01*
G54D11*
X13395Y747649D02*
X13395Y738760D01*
X17395Y744315D01*
X17395Y745427D01*
X12061Y745427D01*
G54D11*
X9618Y742093D02*
X6284Y738760D01*
X6284Y747649D01*
G54D11*
X84895Y772929D02*
X84895Y764040D01*
X88895Y769596D01*
X88895Y770707D01*
X83561Y770707D01*
G54D11*
X75784Y772929D02*
X81118Y772929D01*
X81118Y772373D01*
X80451Y771262D01*
X76451Y767929D01*
X75784Y766818D01*
X75784Y765707D01*
X76451Y764596D01*
X77784Y764040D01*
X79118Y764040D01*
X80451Y764595D01*
X81118Y765707D01*
G54D11*
X13485Y772809D02*
X13485Y763920D01*
X17485Y769476D01*
X17485Y770587D01*
X12151Y770587D01*
G54D11*
X9708Y765587D02*
X9041Y764476D01*
X7708Y763920D01*
X6374Y763920D01*
X5041Y764476D01*
X4374Y765587D01*
X4374Y766698D01*
X5041Y767809D01*
X6374Y768364D01*
X5041Y768920D01*
X4374Y770031D01*
X4374Y771142D01*
X5041Y772253D01*
X6374Y772809D01*
X7708Y772809D01*
X9041Y772253D01*
X9708Y771142D01*
G54D11*
X84895Y798329D02*
X84895Y789440D01*
X88895Y794995D01*
X88895Y796107D01*
X83561Y796107D01*
G54D11*
X77118Y798329D02*
X77118Y789440D01*
X81118Y794995D01*
X81118Y796107D01*
X75784Y796107D01*
G54D11*
X13485Y797969D02*
X13485Y789080D01*
X17485Y794636D01*
X17485Y795747D01*
X12151Y795747D01*
G54D11*
X4374Y789080D02*
X9708Y789080D01*
X9708Y792969D01*
X9041Y792969D01*
X7708Y792413D01*
X6374Y792413D01*
X5041Y792969D01*
X4374Y794080D01*
X4374Y796302D01*
X5041Y797413D01*
X6374Y797969D01*
X7708Y797969D01*
X9041Y797413D01*
X9708Y796302D01*
G54D11*
X84895Y823729D02*
X84895Y814840D01*
X88895Y820396D01*
X88895Y821507D01*
X83561Y821507D01*
G54D11*
X75784Y816507D02*
X76451Y815395D01*
X77784Y814840D01*
X79117Y814840D01*
X80451Y815396D01*
X81118Y816507D01*
X81118Y819284D01*
X81118Y819840D01*
X79118Y818729D01*
X77784Y818729D01*
X76451Y819284D01*
X75784Y820396D01*
X75784Y822062D01*
X76451Y823173D01*
X77784Y823729D01*
X79118Y823729D01*
X80451Y823173D01*
X81118Y822062D01*
X81118Y819284D01*
G54D11*
X13355Y823109D02*
X13355Y814220D01*
X17355Y819776D01*
X17355Y820887D01*
X12021Y820887D01*
G54D11*
X9578Y814220D02*
X4244Y814220D01*
X4911Y815331D01*
X6244Y816998D01*
X7578Y819220D01*
X8244Y820887D01*
X8244Y823109D01*
G54D11*
X84895Y849129D02*
X84895Y840240D01*
X88895Y845796D01*
X88895Y846907D01*
X83561Y846907D01*
G54D11*
X77784Y844684D02*
X79118Y844684D01*
X80451Y844129D01*
X81118Y843018D01*
X81118Y841906D01*
X80451Y840796D01*
X79118Y840240D01*
X77784Y840240D01*
X76451Y840796D01*
X75784Y841907D01*
X75784Y843018D01*
X76451Y844129D01*
X77784Y844684D01*
X76451Y845240D01*
X75784Y846351D01*
X75784Y847462D01*
X76451Y848573D01*
X77784Y849129D01*
X79118Y849129D01*
X80451Y848573D01*
X81118Y847462D01*
X81118Y846351D01*
X80451Y845240D01*
X79118Y844684D01*
G54D11*
X13475Y848149D02*
X13475Y839260D01*
X17475Y844816D01*
X17475Y845927D01*
X12141Y845927D01*
G54D11*
X9698Y846482D02*
X9031Y847593D01*
X7698Y848149D01*
X6364Y848149D01*
X5031Y847593D01*
X4364Y846482D01*
X4364Y843704D01*
X4364Y843149D01*
X6364Y844260D01*
X7698Y844260D01*
X9031Y843704D01*
X9698Y842593D01*
X9698Y840927D01*
X9031Y839816D01*
X7698Y839260D01*
X6364Y839260D01*
X5031Y839816D01*
X4364Y840927D01*
X4364Y843704D01*
G54D11*
X83561Y865640D02*
X88895Y865640D01*
X88895Y869529D01*
X88228Y869529D01*
X86895Y868973D01*
X85561Y868973D01*
X84228Y869529D01*
X83561Y870640D01*
X83561Y872862D01*
X84228Y873973D01*
X85561Y874529D01*
X86895Y874529D01*
X88228Y873973D01*
X88895Y872862D01*
G54D11*
X75784Y867307D02*
X75784Y872862D01*
X76451Y873973D01*
X77784Y874529D01*
X79118Y874529D01*
X80451Y873973D01*
X81118Y872862D01*
X81118Y867307D01*
X80451Y866195D01*
X79118Y865640D01*
X77784Y865640D01*
X76451Y866195D01*
X75784Y867307D01*
G54D11*
X12031Y864820D02*
X17365Y864820D01*
X17365Y868709D01*
X16698Y868709D01*
X15365Y868153D01*
X14031Y868153D01*
X12698Y868709D01*
X12031Y869820D01*
X12031Y872042D01*
X12698Y873153D01*
X14031Y873709D01*
X15365Y873709D01*
X16698Y873153D01*
X17365Y872042D01*
G54D11*
X9588Y868153D02*
X6254Y864820D01*
X6254Y873709D01*
G54D11*
X83561Y891040D02*
X88895Y891040D01*
X88895Y894929D01*
X88228Y894929D01*
X86895Y894373D01*
X85561Y894373D01*
X84228Y894929D01*
X83561Y896040D01*
X83561Y898262D01*
X84228Y899373D01*
X85561Y899929D01*
X86895Y899929D01*
X88228Y899373D01*
X88895Y898262D01*
G54D11*
X75784Y899929D02*
X81118Y899929D01*
X81118Y899373D01*
X80451Y898262D01*
X76451Y894929D01*
X75784Y893818D01*
X75784Y892707D01*
X76451Y891596D01*
X77784Y891040D01*
X79118Y891040D01*
X80451Y891596D01*
X81118Y892707D01*
G54D11*
X12141Y890860D02*
X17475Y890860D01*
X17475Y894749D01*
X16808Y894749D01*
X15475Y894193D01*
X14141Y894193D01*
X12808Y894749D01*
X12141Y895860D01*
X12141Y898082D01*
X12808Y899193D01*
X14141Y899749D01*
X15475Y899749D01*
X16808Y899193D01*
X17475Y898082D01*
G54D11*
X9698Y892527D02*
X9031Y891416D01*
X7698Y890860D01*
X6364Y890860D01*
X5031Y891416D01*
X4364Y892527D01*
X4364Y893638D01*
X5031Y894749D01*
X6364Y895304D01*
X5031Y895860D01*
X4364Y896971D01*
X4364Y898082D01*
X5031Y899193D01*
X6364Y899749D01*
X7698Y899749D01*
X9031Y899193D01*
X9698Y898082D01*
G54D12*
X58874Y943332D02*
X54875Y943332D01*
X54875Y947499D01*
X55875Y949166D01*
X57875Y949999D01*
X59875Y949999D01*
X61875Y949166D01*
X62875Y947499D01*
X62875Y939165D01*
X61875Y937499D01*
X59875Y936665D01*
X57875Y936666D01*
X55875Y937499D01*
X54875Y939165D01*
G54D12*
X51208Y949999D02*
X51208Y936666D01*
X43208Y949999D01*
X43208Y936666D01*
G54D12*
X39541Y949999D02*
X39541Y936666D01*
X34541Y936665D01*
X32541Y937499D01*
X31541Y939165D01*
X31541Y947499D01*
X32541Y949165D01*
X34541Y949999D01*
X39541Y949999D01*
G54D11*
X590569Y952382D02*
X590569Y949715D01*
X587791Y949715D01*
X586680Y950382D01*
X586125Y951715D01*
X586125Y953049D01*
X586680Y954382D01*
X587791Y955049D01*
X593347Y955049D01*
X594458Y954382D01*
X595014Y953049D01*
X595014Y951715D01*
X594458Y950382D01*
X593347Y949715D01*
G54D11*
X586125Y947272D02*
X595014Y947272D01*
X586125Y941938D01*
X595014Y941938D01*
G54D11*
X586125Y939495D02*
X595014Y939495D01*
X595014Y936162D01*
X594458Y934828D01*
X593347Y934162D01*
X587791Y934162D01*
X586680Y934828D01*
X586125Y936161D01*
X586125Y939495D01*
G54D11*
X565169Y952382D02*
X565169Y949715D01*
X562391Y949716D01*
X561280Y950382D01*
X560725Y951715D01*
X560725Y953049D01*
X561280Y954382D01*
X562392Y955049D01*
X567947Y955049D01*
X569058Y954382D01*
X569614Y953049D01*
X569614Y951716D01*
X569058Y950382D01*
X567947Y949715D01*
G54D11*
X560725Y947272D02*
X569614Y947272D01*
X560725Y941938D01*
X569614Y941938D01*
G54D11*
X560725Y939495D02*
X569614Y939495D01*
X569614Y936161D01*
X569058Y934828D01*
X567947Y934161D01*
X562392Y934161D01*
X561280Y934828D01*
X560725Y936162D01*
X560725Y939495D01*
G54D11*
X666769Y951982D02*
X665658Y949982D01*
X664547Y949316D01*
X662325Y949315D01*
G54D11*
X662325Y954649D02*
X671214Y954649D01*
X671214Y951315D01*
X670658Y949982D01*
X669547Y949316D01*
X668436Y949316D01*
X667325Y949982D01*
X666769Y951316D01*
X666769Y954649D01*
G54D11*
X662325Y942205D02*
X662325Y946872D01*
X671214Y946872D01*
X671214Y942205D01*
G54D11*
X666769Y946872D02*
X666769Y942205D01*
G54D11*
X663991Y939761D02*
X662880Y939094D01*
X662325Y937761D01*
X662325Y936428D01*
X662880Y935094D01*
X663991Y934427D01*
X665102Y934427D01*
X666214Y935094D01*
X666769Y936427D01*
X666769Y937761D01*
X667325Y939094D01*
X668436Y939761D01*
X669547Y939761D01*
X670658Y939094D01*
X671214Y937761D01*
X671214Y936428D01*
X670658Y935094D01*
X669547Y934427D01*
G54D11*
X662325Y927317D02*
X662325Y931984D01*
X671214Y931984D01*
X671214Y927317D01*
G54D11*
X666769Y931984D02*
X666769Y927317D01*
G54D11*
X662325Y922206D02*
X671214Y922206D01*
G54D11*
X671214Y924873D02*
X671214Y919539D01*
G54D11*
X645847Y954249D02*
X646958Y953582D01*
X647514Y952249D01*
X647514Y950916D01*
X646958Y949582D01*
X645847Y948915D01*
X644736Y948915D01*
X643625Y949582D01*
X643069Y950916D01*
X642514Y949582D01*
X641402Y948915D01*
X640291Y948915D01*
X639180Y949582D01*
X638625Y950915D01*
X638625Y952249D01*
X639180Y953582D01*
X640291Y954249D01*
G54D11*
X638625Y945138D02*
X637514Y945138D01*
X636402Y945805D01*
X636402Y946472D01*
G54D11*
X645847Y942695D02*
X646958Y942028D01*
X647514Y940695D01*
X647514Y939361D01*
X646958Y938028D01*
X645847Y937361D01*
X644736Y937362D01*
X643625Y938028D01*
X643069Y939361D01*
X642514Y938028D01*
X641402Y937361D01*
X640291Y937361D01*
X639180Y938028D01*
X638625Y939361D01*
X638625Y940695D01*
X639180Y942028D01*
X640291Y942695D01*
G54D11*
X647514Y934918D02*
X638625Y931584D01*
X647514Y928251D01*
G54D11*
X620414Y949416D02*
X620414Y954749D01*
X616525Y954749D01*
X616525Y954082D01*
X617080Y952749D01*
X617080Y951415D01*
X616525Y950082D01*
X615414Y949415D01*
X613191Y949415D01*
X612080Y950082D01*
X611525Y951416D01*
X611525Y952749D01*
X612080Y954082D01*
X613191Y954749D01*
G54D11*
X620414Y946972D02*
X611525Y943638D01*
X620414Y940305D01*
G54D11*
X544214Y955349D02*
X535325Y952015D01*
X544214Y948682D01*
G54D11*
X535325Y946238D02*
X540325Y946238D01*
G54D11*
X541992Y946238D02*
X541992Y946238D01*
G54D11*
X535325Y943794D02*
X540325Y943794D01*
G54D11*
X539214Y943794D02*
X539992Y943127D01*
X540325Y941794D01*
X539991Y940460D01*
X539214Y939794D01*
X535325Y939794D01*
G54D11*
X484525Y954749D02*
X493414Y951416D01*
X484525Y948082D01*
G54D11*
X487858Y953416D02*
X487858Y949415D01*
G54D11*
X491747Y940305D02*
X486191Y940304D01*
X485080Y940971D01*
X484525Y942304D01*
X484525Y943638D01*
X485080Y944971D01*
X486191Y945638D01*
X491747Y945638D01*
X492858Y944971D01*
X493414Y943638D01*
X493414Y942304D01*
X492858Y940971D01*
X491747Y940305D01*
G54D11*
X459125Y954449D02*
X468014Y951115D01*
X459125Y947782D01*
G54D11*
X462458Y953115D02*
X462458Y949115D01*
G54D11*
X464680Y945338D02*
X468014Y942005D01*
X459125Y942004D01*
G54D11*
X433725Y954749D02*
X442614Y951416D01*
X433725Y948082D01*
G54D11*
X437058Y953415D02*
X437058Y949415D01*
G54D11*
X433725Y940304D02*
X433725Y945638D01*
X434280Y945638D01*
X435392Y944971D01*
X438725Y940971D01*
X439836Y940304D01*
X440947Y940305D01*
X442058Y940971D01*
X442614Y942304D01*
X442614Y943638D01*
X442058Y944971D01*
X440947Y945638D01*
G54D11*
X408324Y954749D02*
X417214Y951416D01*
X408325Y948082D01*
G54D11*
X411658Y953415D02*
X411658Y949416D01*
G54D11*
X415547Y945638D02*
X416658Y944971D01*
X417214Y943638D01*
X417214Y942304D01*
X416658Y940971D01*
X415547Y940305D01*
X414436Y940304D01*
X413325Y940971D01*
X412769Y942304D01*
X412214Y940971D01*
X411102Y940304D01*
X409991Y940304D01*
X408880Y940971D01*
X408325Y942304D01*
X408325Y943638D01*
X408880Y944971D01*
X409991Y945638D01*
G54D11*
X382925Y954749D02*
X391814Y951416D01*
X382925Y948082D01*
G54D11*
X386258Y953416D02*
X386258Y949415D01*
G54D11*
X382925Y941638D02*
X391814Y941638D01*
X386258Y945638D01*
X385147Y945638D01*
X385147Y940304D01*
G54D11*
X357525Y954749D02*
X366414Y951416D01*
X357525Y948082D01*
G54D11*
X360858Y953415D02*
X360858Y949416D01*
G54D11*
X366414Y940304D02*
X366414Y945638D01*
X362525Y945638D01*
X362524Y944971D01*
X363080Y943638D01*
X363080Y942304D01*
X362525Y940971D01*
X361413Y940304D01*
X359191Y940304D01*
X358080Y940971D01*
X357525Y942304D01*
X357525Y943638D01*
X358080Y944971D01*
X359191Y945638D01*
G54D11*
X332125Y954749D02*
X341013Y951415D01*
X332125Y948082D01*
G54D11*
X335458Y953415D02*
X335458Y949415D01*
G54D11*
X339347Y940304D02*
X340458Y940971D01*
X341013Y942304D01*
X341013Y943638D01*
X340458Y944971D01*
X339347Y945638D01*
X336569Y945638D01*
X336013Y945638D01*
X337125Y943638D01*
X337125Y942304D01*
X336569Y940971D01*
X335458Y940304D01*
X333791Y940304D01*
X332680Y940971D01*
X332125Y942305D01*
X332125Y943638D01*
X332680Y944971D01*
X333791Y945638D01*
X336569Y945638D01*
G54D11*
X306724Y954749D02*
X315614Y951416D01*
X306725Y948082D01*
G54D11*
X310058Y953415D02*
X310058Y949415D01*
G54D11*
X315614Y945638D02*
X315614Y940304D01*
X314502Y940971D01*
X312836Y942304D01*
X310614Y943638D01*
X308947Y944305D01*
X306725Y944304D01*
G54D11*
X255925Y953249D02*
X264813Y949915D01*
X255925Y946582D01*
G54D11*
X259258Y951915D02*
X259258Y947915D01*
G54D11*
X260369Y940804D02*
X260369Y942138D01*
X260925Y943471D01*
X262036Y944138D01*
X263147Y944138D01*
X264258Y943471D01*
X264814Y942138D01*
X264814Y940804D01*
X264258Y939471D01*
X263147Y938804D01*
X262036Y938804D01*
X260925Y939471D01*
X260369Y940804D01*
X259814Y939471D01*
X258702Y938804D01*
X257591Y938804D01*
X256480Y939471D01*
X255925Y940804D01*
X255925Y942138D01*
X256480Y943471D01*
X257591Y944138D01*
X258702Y944138D01*
X259814Y943471D01*
X260369Y942138D01*
G54D11*
X230525Y953249D02*
X239413Y949915D01*
X230525Y946582D01*
G54D11*
X233858Y951916D02*
X233858Y947915D01*
G54D11*
X232191Y944138D02*
X231080Y943471D01*
X230525Y942138D01*
X230525Y940804D01*
X231080Y939471D01*
X232191Y938805D01*
X234969Y938804D01*
X235525Y938804D01*
X234413Y940804D01*
X234413Y942138D01*
X234969Y943471D01*
X236080Y944138D01*
X237747Y944138D01*
X238858Y943471D01*
X239413Y942138D01*
X239413Y940804D01*
X238858Y939471D01*
X237747Y938804D01*
X234969Y938804D01*
G54D11*
X205125Y953649D02*
X214013Y950316D01*
X205125Y946982D01*
G54D11*
X208458Y952316D02*
X208458Y948315D01*
G54D11*
X210680Y944538D02*
X214014Y941204D01*
X205125Y941205D01*
G54D11*
X212347Y933427D02*
X206791Y933427D01*
X205680Y934094D01*
X205125Y935428D01*
X205125Y936761D01*
X205680Y938094D01*
X206791Y938761D01*
X212347Y938761D01*
X213458Y938094D01*
X214013Y936761D01*
X214013Y935427D01*
X213458Y934094D01*
X212347Y933427D01*
G54D11*
X179725Y952849D02*
X188613Y949515D01*
X179725Y946182D01*
G54D11*
X183058Y951515D02*
X183058Y947515D01*
G54D11*
X185280Y943738D02*
X188614Y940405D01*
X179725Y940404D01*
G54D11*
X185280Y937961D02*
X188613Y934628D01*
X179725Y934627D01*
G54D11*
X154325Y953649D02*
X163214Y950315D01*
X154325Y946982D01*
G54D11*
X157658Y952316D02*
X157658Y948315D01*
G54D11*
X159880Y944538D02*
X163213Y941204D01*
X154325Y941204D01*
G54D11*
X154325Y933428D02*
X154325Y938761D01*
X154880Y938761D01*
X155991Y938094D01*
X159325Y934094D01*
X160436Y933427D01*
X161547Y933428D01*
X162658Y934094D01*
X163213Y935428D01*
X163213Y936761D01*
X162658Y938094D01*
X161547Y938761D01*
G54D11*
X128925Y953649D02*
X137813Y950316D01*
X128925Y946982D01*
G54D11*
X132258Y952315D02*
X132258Y948315D01*
G54D11*
X134480Y944538D02*
X137814Y941204D01*
X128925Y941204D01*
G54D11*
X136147Y938761D02*
X137258Y938094D01*
X137814Y936761D01*
X137814Y935427D01*
X137258Y934094D01*
X136147Y933427D01*
X135036Y933427D01*
X133925Y934094D01*
X133369Y935427D01*
X132814Y934094D01*
X131702Y933427D01*
X130591Y933427D01*
X129480Y934094D01*
X128925Y935427D01*
X128925Y936761D01*
X129480Y938094D01*
X130591Y938761D01*
G54D11*
X103525Y953649D02*
X112413Y950315D01*
X103525Y946982D01*
G54D11*
X106858Y952315D02*
X106858Y948316D01*
G54D11*
X109080Y944538D02*
X112413Y941204D01*
X103525Y941204D01*
G54D11*
X103525Y934761D02*
X112413Y934761D01*
X106858Y938761D01*
X105747Y938761D01*
X105747Y933427D01*
G54D11*
X78125Y953649D02*
X87014Y950316D01*
X78125Y946982D01*
G54D11*
X81458Y952316D02*
X81458Y948315D01*
G54D11*
X83680Y944538D02*
X87013Y941204D01*
X78125Y941205D01*
G54D11*
X87013Y933427D02*
X87013Y938761D01*
X83125Y938761D01*
X83125Y938094D01*
X83680Y936761D01*
X83680Y935427D01*
X83125Y934094D01*
X82013Y933428D01*
X79791Y933427D01*
X78680Y934094D01*
X78125Y935428D01*
X78125Y936761D01*
X78680Y938094D01*
X79791Y938761D01*
G54D11*
X58863Y465038D02*
X64197Y465038D01*
X64197Y468927D01*
X63530Y468927D01*
X62197Y468371D01*
X60863Y468371D01*
X59530Y468927D01*
X58863Y470038D01*
X58863Y472260D01*
X59530Y473371D01*
X60863Y473927D01*
X62197Y473927D01*
X63530Y473371D01*
X64197Y472260D01*
G54D11*
X56420Y465038D02*
X53086Y473927D01*
X49753Y465038D01*
G54D13*
X970827Y935207D02*
X993049Y935207D01*
X993049Y926874D01*
X991660Y923540D01*
X988882Y921873D01*
X986104Y921873D01*
X983327Y923540D01*
X981938Y926873D01*
X981938Y935207D01*
G54D13*
X988882Y902430D02*
X974994Y902430D01*
X972216Y904096D01*
X970826Y907429D01*
X970826Y910763D01*
X972216Y914096D01*
X974993Y915763D01*
X988882Y915763D01*
X991660Y914096D01*
X993049Y910763D01*
X993049Y907429D01*
X991660Y904096D01*
X988882Y902430D01*
G54D13*
X993049Y896319D02*
X970826Y896319D01*
X984716Y887985D01*
X970826Y879652D01*
X993049Y879652D01*
G54D13*
X970826Y861874D02*
X970826Y873541D01*
X993049Y873541D01*
X993049Y861874D01*
G54D13*
X981938Y873541D02*
X981938Y861874D01*
G54D13*
X981938Y849096D02*
X979160Y844096D01*
X976382Y842430D01*
X970826Y842430D01*
G54D13*
X970826Y855763D02*
X993049Y855763D01*
X993049Y847430D01*
X991660Y844096D01*
X988882Y842430D01*
X986104Y842430D01*
X983326Y844096D01*
X981938Y847429D01*
X981938Y855763D01*
G54D13*
X991049Y646207D02*
X972994Y646207D01*
X970216Y644540D01*
X968827Y641207D01*
X968827Y637873D01*
X970216Y634540D01*
X972994Y632873D01*
X991049Y632873D01*
G54D13*
X972994Y626763D02*
X970216Y625096D01*
X968827Y621763D01*
X968826Y618429D01*
X970216Y615096D01*
X972994Y613430D01*
X975771Y613429D01*
X978549Y615096D01*
X979938Y618429D01*
X979938Y621763D01*
X981326Y625096D01*
X984104Y626763D01*
X986882Y626763D01*
X989660Y625096D01*
X991049Y621763D01*
X991049Y618429D01*
X989660Y615096D01*
X986882Y613430D01*
G54D13*
X968827Y607319D02*
X991049Y607319D01*
X991049Y598985D01*
X989660Y595652D01*
X986882Y593986D01*
X984104Y593986D01*
X981327Y595652D01*
X979938Y598986D01*
X978549Y595652D01*
X975771Y593986D01*
X972994Y593986D01*
X970216Y595652D01*
X968826Y598985D01*
X968827Y607319D01*
G54D13*
X979938Y607319D02*
X979938Y598986D01*
G54D11*
X94748Y920284D02*
X92081Y920284D01*
X92081Y923062D01*
X92748Y924173D01*
X94081Y924729D01*
X95415Y924729D01*
X96748Y924173D01*
X97415Y923062D01*
X97415Y917507D01*
X96748Y916395D01*
X95415Y915840D01*
X94081Y915840D01*
X92748Y916395D01*
X92081Y917507D01*
G54D11*
X89638Y924729D02*
X89637Y915840D01*
X84304Y924729D01*
X84304Y915840D01*
G54D11*
X81861Y924729D02*
X81861Y915840D01*
X78527Y915840D01*
X77194Y916396D01*
X76527Y917507D01*
X76527Y923062D01*
X77194Y924173D01*
X78527Y924729D01*
X81861Y924729D01*
G54D11*
X16368Y920284D02*
X13701Y920284D01*
X13701Y923062D01*
X14368Y924173D01*
X15701Y924729D01*
X17035Y924729D01*
X18368Y924173D01*
X19035Y923062D01*
X19035Y917507D01*
X18368Y916395D01*
X17035Y915840D01*
X15701Y915840D01*
X14368Y916396D01*
X13701Y917507D01*
G54D11*
X11258Y924729D02*
X11258Y915840D01*
X5924Y924729D01*
X5924Y915840D01*
G54D11*
X3481Y924729D02*
X3481Y915840D01*
X147Y915840D01*
X-1186Y916395D01*
X-1853Y917507D01*
X-1853Y923062D01*
X-1186Y924173D01*
X147Y924729D01*
X3481Y924729D01*
G54D14*
X-2408Y1023509D02*
X-2408Y1023509D01*
G54D14*
X-2408Y1004009D02*
X-2408Y1004009D01*
G54D15*
X784225Y501649D02*
X777825Y501649D01*
X771525Y495349D01*
X771525Y482549D01*
X777825Y476249D01*
X790625Y476249D01*
X796925Y482549D01*
X796925Y495349D01*
X790625Y501649D01*
X784225Y501649D01*
G54D15*
X809625Y501649D02*
X803225Y501649D01*
X796925Y495349D01*
X796925Y482549D01*
X803225Y476249D01*
X816025Y476249D01*
X822325Y482549D01*
X822325Y495349D01*
X816025Y501649D01*
X809625Y501649D01*
G54D16*
X605464Y900651D02*
X605464Y551401D01*
X287964Y551401D01*
X287964Y900651D01*
X605464Y900651D01*
G54D15*
X599114Y764126D02*
X599114Y770526D01*
X592814Y776826D01*
X580014Y776826D01*
X573714Y770526D01*
X573714Y757726D01*
X580014Y751426D01*
X592814Y751426D01*
X599114Y757726D01*
X599114Y764126D01*
G54D15*
X599114Y738726D02*
X599114Y745126D01*
X592814Y751426D01*
X580014Y751426D01*
X573714Y745126D01*
X573714Y732326D01*
X580014Y726026D01*
X592814Y726026D01*
X599114Y732326D01*
X599114Y738726D01*
G54D15*
X599114Y713326D02*
X599114Y719726D01*
X592814Y726026D01*
X580014Y726026D01*
X573714Y719726D01*
X573714Y706926D01*
X580014Y700626D01*
X592814Y700626D01*
X599114Y706926D01*
X599114Y713326D01*
G54D15*
X599114Y687926D02*
X599114Y694326D01*
X592814Y700626D01*
X580014Y700626D01*
X573714Y694326D01*
X573714Y681526D01*
X580014Y675226D01*
X592814Y675226D01*
X599114Y681526D01*
X599114Y687926D01*
G54D14*
X626114Y777826D02*
X626114Y777826D01*
G54D14*
X606614Y777826D02*
X606614Y777826D01*
G54D17*
X205464Y827526D02*
X262564Y827526D01*
G54D17*
X205464Y783126D02*
X262564Y783126D01*
G54D17*
X205464Y770326D02*
X205464Y840226D01*
X262564Y840226D01*
X262564Y770326D01*
X205464Y770326D01*
G54D17*
X230864Y827526D02*
X230864Y808526D01*
G54D17*
X237164Y808526D02*
X230864Y795726D01*
G54D17*
X230864Y795726D02*
X230864Y783126D01*
G54D17*
G75*
G01X234064Y789326D02*
G03X234064Y789326I0J15900D01*
G01*
G54D18*
X215462Y801901D02*
X215018Y801634D01*
X214796Y801101D01*
X214795Y800567D01*
X215018Y800034D01*
X215462Y799767D01*
X215907Y799767D01*
X216351Y800034D01*
X216573Y800567D01*
X216573Y801101D01*
X216796Y801634D01*
X217240Y801901D01*
X217684Y801901D01*
X218129Y801634D01*
X218351Y801101D01*
X218351Y800567D01*
X218129Y800034D01*
X217684Y799767D01*
G54D18*
X218351Y798801D02*
X214795Y798801D01*
X217018Y797467D01*
X214795Y796134D01*
X218351Y796134D01*
G54D18*
X214795Y794034D02*
X218351Y794034D01*
G54D18*
X218351Y795101D02*
X218351Y792967D01*
G54D18*
X216351Y792001D02*
X216351Y789867D01*
G54D18*
X214795Y786767D02*
X214795Y788901D01*
X215018Y788901D01*
X215462Y788634D01*
X216795Y787034D01*
X217240Y786767D01*
X217684Y786767D01*
X218129Y787034D01*
X218351Y787567D01*
X218351Y788101D01*
X218129Y788634D01*
X217684Y788901D01*
G54D18*
X217684Y783667D02*
X215462Y783667D01*
X215018Y783934D01*
X214795Y784467D01*
X214795Y785001D01*
X215018Y785534D01*
X215462Y785801D01*
X217684Y785801D01*
X218129Y785534D01*
X218351Y785001D01*
X218351Y784467D01*
X218129Y783934D01*
X217684Y783667D01*
G54D18*
X216351Y782701D02*
X216351Y780567D01*
G54D18*
X217018Y779601D02*
X218351Y778267D01*
X214796Y778267D01*
G54D18*
X217684Y777301D02*
X218129Y777034D01*
X218351Y776501D01*
X218351Y775967D01*
X218129Y775434D01*
X217684Y775167D01*
X217240Y775167D01*
X216795Y775434D01*
X216573Y775967D01*
X216351Y775434D01*
X215907Y775167D01*
X215462Y775167D01*
X215018Y775434D01*
X214795Y775967D01*
X214795Y776501D01*
X215018Y777034D01*
X215462Y777301D01*
G54D17*
X205464Y668776D02*
X262564Y668776D01*
G54D17*
X205464Y624376D02*
X262564Y624376D01*
G54D17*
X205464Y611576D02*
X205464Y681476D01*
X262564Y681476D01*
X262564Y611576D01*
X205464Y611576D01*
G54D17*
X230864Y668776D02*
X230864Y649776D01*
G54D17*
X237164Y649776D02*
X230864Y636976D01*
G54D17*
X230864Y636976D02*
X230864Y624376D01*
G54D17*
G75*
G01X234064Y630576D02*
G03X234064Y630576I0J15900D01*
G01*
G54D18*
X215462Y643151D02*
X215018Y642884D01*
X214795Y642351D01*
X214795Y641817D01*
X215018Y641284D01*
X215462Y641017D01*
X215907Y641017D01*
X216351Y641284D01*
X216573Y641817D01*
X216573Y642351D01*
X216795Y642884D01*
X217240Y643151D01*
X217684Y643151D01*
X218129Y642884D01*
X218351Y642351D01*
X218351Y641817D01*
X218129Y641284D01*
X217684Y641017D01*
G54D18*
X218351Y640051D02*
X214795Y640051D01*
X217018Y638717D01*
X214795Y637384D01*
X218351Y637384D01*
G54D18*
X214795Y635284D02*
X218351Y635284D01*
G54D18*
X218351Y636351D02*
X218351Y634217D01*
G54D18*
X216351Y633251D02*
X216351Y631117D01*
G54D18*
X214795Y628017D02*
X214795Y630151D01*
X215018Y630151D01*
X215462Y629884D01*
X216795Y628284D01*
X217240Y628017D01*
X217684Y628017D01*
X218129Y628284D01*
X218351Y628817D01*
X218351Y629351D01*
X218129Y629884D01*
X217684Y630151D01*
G54D18*
X217684Y624917D02*
X215462Y624917D01*
X215018Y625184D01*
X214795Y625717D01*
X214795Y626251D01*
X215018Y626784D01*
X215462Y627051D01*
X217684Y627051D01*
X218129Y626784D01*
X218351Y626251D01*
X218351Y625717D01*
X218129Y625184D01*
X217684Y624917D01*
G54D18*
X216351Y623951D02*
X216351Y621817D01*
G54D18*
X217018Y620851D02*
X218351Y619517D01*
X214795Y619517D01*
G54D18*
X217684Y618551D02*
X218129Y618284D01*
X218351Y617751D01*
X218351Y617217D01*
X218129Y616684D01*
X217684Y616417D01*
X217240Y616417D01*
X216795Y616684D01*
X216573Y617217D01*
X216351Y616684D01*
X215907Y616417D01*
X215462Y616417D01*
X215018Y616684D01*
X214795Y617217D01*
X214795Y617751D01*
X215018Y618284D01*
X215462Y618551D01*
G54D17*
X103864Y827526D02*
X160964Y827526D01*
G54D17*
X103864Y783126D02*
X160964Y783126D01*
G54D17*
X103864Y770326D02*
X103864Y840226D01*
X160964Y840226D01*
X160964Y770326D01*
X103864Y770326D01*
G54D17*
X129264Y827526D02*
X129264Y808526D01*
G54D17*
X135564Y808526D02*
X129264Y795726D01*
G54D17*
X129264Y795726D02*
X129264Y783126D01*
G54D17*
G75*
G01X132464Y789326D02*
G03X132464Y789326I0J15900D01*
G01*
G54D18*
X113862Y801901D02*
X113418Y801634D01*
X113195Y801101D01*
X113195Y800567D01*
X113418Y800034D01*
X113862Y799767D01*
X114307Y799767D01*
X114751Y800034D01*
X114973Y800567D01*
X114973Y801101D01*
X115195Y801634D01*
X115640Y801901D01*
X116084Y801901D01*
X116529Y801634D01*
X116751Y801101D01*
X116751Y800567D01*
X116529Y800034D01*
X116084Y799767D01*
G54D18*
X116751Y798801D02*
X113195Y798801D01*
X115418Y797467D01*
X113195Y796134D01*
X116751Y796134D01*
G54D18*
X113195Y794034D02*
X116751Y794034D01*
G54D18*
X116751Y795101D02*
X116751Y792967D01*
G54D18*
X114751Y792001D02*
X114751Y789867D01*
G54D18*
X113195Y786767D02*
X113195Y788901D01*
X113418Y788901D01*
X113862Y788634D01*
X115195Y787034D01*
X115640Y786767D01*
X116084Y786767D01*
X116529Y787034D01*
X116751Y787567D01*
X116751Y788101D01*
X116529Y788634D01*
X116084Y788901D01*
G54D18*
X116084Y783667D02*
X113862Y783667D01*
X113418Y783934D01*
X113195Y784467D01*
X113195Y785001D01*
X113418Y785534D01*
X113862Y785801D01*
X116084Y785801D01*
X116529Y785534D01*
X116751Y785001D01*
X116751Y784467D01*
X116529Y783934D01*
X116084Y783667D01*
G54D18*
X114751Y782701D02*
X114751Y780567D01*
G54D18*
X115418Y779601D02*
X116751Y778267D01*
X113195Y778267D01*
G54D18*
X116084Y777301D02*
X116529Y777034D01*
X116751Y776501D01*
X116751Y775967D01*
X116529Y775434D01*
X116084Y775167D01*
X115640Y775167D01*
X115195Y775434D01*
X114973Y775967D01*
X114751Y775434D01*
X114307Y775167D01*
X113862Y775167D01*
X113418Y775434D01*
X113195Y775967D01*
X113195Y776501D01*
X113418Y777034D01*
X113862Y777301D01*
G54D17*
X103864Y668776D02*
X160964Y668776D01*
G54D17*
X103864Y624376D02*
X160964Y624376D01*
G54D17*
X103864Y611576D02*
X103864Y681476D01*
X160964Y681476D01*
X160964Y611576D01*
X103864Y611576D01*
G54D17*
X129264Y668776D02*
X129264Y649776D01*
G54D17*
X135564Y649776D02*
X129264Y636976D01*
G54D17*
X129264Y636976D02*
X129264Y624376D01*
G54D17*
G75*
G01X132464Y630576D02*
G03X132464Y630576I0J15900D01*
G01*
G54D18*
X113862Y643151D02*
X113418Y642884D01*
X113195Y642351D01*
X113195Y641817D01*
X113418Y641284D01*
X113862Y641017D01*
X114307Y641017D01*
X114751Y641284D01*
X114973Y641817D01*
X114973Y642351D01*
X115195Y642884D01*
X115640Y643151D01*
X116084Y643151D01*
X116529Y642884D01*
X116751Y642351D01*
X116751Y641817D01*
X116529Y641284D01*
X116084Y641017D01*
G54D18*
X116751Y640051D02*
X113195Y640051D01*
X115418Y638717D01*
X113195Y637384D01*
X116751Y637384D01*
G54D18*
X113195Y635284D02*
X116751Y635284D01*
G54D18*
X116751Y636351D02*
X116751Y634217D01*
G54D18*
X114751Y633251D02*
X114751Y631117D01*
G54D18*
X113195Y628017D02*
X113195Y630151D01*
X113418Y630151D01*
X113862Y629884D01*
X115195Y628284D01*
X115640Y628017D01*
X116084Y628017D01*
X116529Y628284D01*
X116751Y628817D01*
X116751Y629351D01*
X116529Y629884D01*
X116084Y630151D01*
G54D18*
X116084Y624917D02*
X113862Y624917D01*
X113418Y625184D01*
X113195Y625717D01*
X113195Y626251D01*
X113418Y626784D01*
X113862Y627051D01*
X116084Y627051D01*
X116529Y626784D01*
X116751Y626251D01*
X116751Y625717D01*
X116529Y625184D01*
X116084Y624917D01*
G54D18*
X114751Y623951D02*
X114751Y621817D01*
G54D18*
X115418Y620851D02*
X116751Y619517D01*
X113195Y619517D01*
G54D18*
X116084Y618551D02*
X116529Y618284D01*
X116751Y617751D01*
X116751Y617217D01*
X116529Y616684D01*
X116084Y616417D01*
X115640Y616417D01*
X115195Y616684D01*
X114973Y617217D01*
X114751Y616684D01*
X114307Y616417D01*
X113862Y616417D01*
X113418Y616684D01*
X113195Y617217D01*
X113195Y617751D01*
X113418Y618284D01*
X113862Y618551D01*
G54D16*
X999164Y681576D02*
X999164Y522826D01*
X614989Y522826D01*
X614989Y681576D01*
X999164Y681576D01*
G54D15*
X643564Y665701D02*
X643564Y672101D01*
X637264Y678401D01*
X624464Y678401D01*
X618164Y672101D01*
X618164Y659301D01*
X624464Y653001D01*
X637264Y653001D01*
X643564Y659301D01*
X643564Y665701D01*
G54D15*
X643564Y640301D02*
X643564Y646701D01*
X637264Y653001D01*
X624464Y653001D01*
X618164Y646701D01*
X618164Y633901D01*
X624464Y627601D01*
X637264Y627601D01*
X643564Y633901D01*
X643564Y640301D01*
G54D15*
X643564Y614901D02*
X643564Y621301D01*
X637264Y627601D01*
X624464Y627601D01*
X618164Y621301D01*
X618164Y608501D01*
X624464Y602201D01*
X637264Y602201D01*
X643564Y608501D01*
X643564Y614901D01*
G54D15*
X643564Y589501D02*
X643564Y595901D01*
X637264Y602201D01*
X624464Y602201D01*
X618164Y595901D01*
X618164Y583101D01*
X624464Y576801D01*
X637264Y576801D01*
X643564Y583101D01*
X643564Y589501D01*
G54D15*
X643564Y564101D02*
X643564Y570501D01*
X637264Y576801D01*
X624464Y576801D01*
X618164Y570501D01*
X618164Y557701D01*
X624464Y551401D01*
X637264Y551401D01*
X643564Y557701D01*
X643564Y564101D01*
G54D15*
X643564Y538701D02*
X643564Y545101D01*
X637264Y551401D01*
X624464Y551401D01*
X618164Y545101D01*
X618164Y532301D01*
X624464Y526001D01*
X637264Y526001D01*
X643564Y532301D01*
X643564Y538701D01*
G54D14*
X670564Y679401D02*
X670564Y679401D01*
G54D14*
X651064Y679401D02*
X651064Y679401D01*
G54D19*
X751514Y637126D02*
X769292Y637126D01*
G54D19*
X751514Y626459D02*
X769292Y626459D01*
G54D19*
X760403Y637126D02*
X760403Y626459D01*
G54D19*
X754848Y610903D02*
X752625Y612236D01*
X751514Y614903D01*
X751514Y617570D01*
X752625Y620236D01*
X754848Y621570D01*
X765959Y621570D01*
X768181Y620236D01*
X769292Y617570D01*
X769292Y614903D01*
X768181Y612236D01*
X765959Y610903D01*
G54D19*
X759292Y606014D02*
X759292Y595347D01*
G54D19*
X765959Y579791D02*
X754848Y579791D01*
X752625Y581124D01*
X751514Y583791D01*
X751514Y586458D01*
X752625Y589124D01*
X754848Y590458D01*
X765959Y590458D01*
X768181Y589124D01*
X769292Y586458D01*
X769292Y583791D01*
X768181Y581124D01*
X765959Y579791D01*
G54D19*
X769292Y564235D02*
X769292Y574902D01*
X761514Y574902D01*
X761514Y573568D01*
X762625Y570902D01*
X762625Y568235D01*
X761514Y565568D01*
X759292Y564235D01*
X754848Y564235D01*
X752625Y565568D01*
X751514Y568235D01*
X751514Y570902D01*
X752625Y573568D01*
X754848Y574902D01*
G54D19*
X677400Y562393D02*
X673400Y564615D01*
X672067Y566838D01*
X672067Y571282D01*
G54D19*
X682734Y571282D02*
X682734Y553504D01*
X676067Y553504D01*
X673400Y554615D01*
X672067Y556838D01*
X672067Y559060D01*
X673400Y561282D01*
X676067Y562393D01*
X682734Y562393D01*
G54D19*
X667178Y553504D02*
X653844Y571282D01*
G54D19*
X667178Y571282D02*
X653844Y553504D01*
G54D19*
X678786Y599283D02*
X678786Y581505D01*
G54D19*
X684120Y581505D02*
X673453Y581505D01*
G54D19*
X668564Y581505D02*
X655230Y599283D01*
G54D19*
X668564Y599283D02*
X655230Y581505D01*
G54D19*
X686928Y613899D02*
X681594Y613899D01*
X681594Y619454D01*
X682928Y621677D01*
X685594Y622788D01*
X688261Y622788D01*
X690928Y621677D01*
X692261Y619454D01*
X692261Y608344D01*
X690928Y606121D01*
X688261Y605010D01*
X685594Y605010D01*
X682928Y606121D01*
X681594Y608343D01*
G54D19*
X676705Y622788D02*
X676705Y605010D01*
X666038Y622788D01*
X666038Y605010D01*
G54D19*
X661149Y622788D02*
X661149Y605010D01*
X654482Y605010D01*
X651816Y606121D01*
X650482Y608343D01*
X650482Y619454D01*
X651816Y621677D01*
X654482Y622788D01*
X661149Y622788D01*
G54D19*
X695436Y633585D02*
X688770Y651363D01*
X682103Y633585D01*
G54D19*
X666548Y648030D02*
X667881Y650252D01*
X670548Y651363D01*
X673214Y651363D01*
X675881Y650252D01*
X677214Y648030D01*
X677214Y636918D01*
X675881Y634696D01*
X673214Y633585D01*
X670548Y633585D01*
X667881Y634696D01*
X666548Y636918D01*
G54D19*
X650992Y648030D02*
X652325Y650252D01*
X654992Y651363D01*
X657658Y651363D01*
X660325Y650252D01*
X661658Y648030D01*
X661658Y636918D01*
X660325Y634696D01*
X657658Y633585D01*
X654992Y633585D01*
X652325Y634696D01*
X650992Y636918D01*
G54D19*
X670228Y673588D02*
X679561Y673588D01*
X679561Y655810D01*
X670228Y655810D01*
G54D19*
X679561Y664699D02*
X670228Y664699D01*
G54D19*
X665339Y673588D02*
X665339Y655810D01*
X654672Y673588D01*
X654672Y655810D01*
G54D19*
X727186Y543254D02*
X725853Y545477D01*
X723186Y546588D01*
X720519Y546588D01*
X717853Y545477D01*
X716519Y543254D01*
X716519Y541032D01*
X717853Y538810D01*
X720519Y537699D01*
X723186Y537699D01*
X725853Y536588D01*
X727186Y534366D01*
X727186Y532144D01*
X725853Y529921D01*
X723186Y528810D01*
X720519Y528810D01*
X717853Y529921D01*
X716519Y532143D01*
G54D19*
X706297Y546588D02*
X706297Y528810D01*
G54D19*
X711630Y528810D02*
X700963Y528810D01*
G54D19*
X696074Y546588D02*
X689407Y528810D01*
X682741Y546588D01*
G54D19*
X693407Y539921D02*
X685407Y539921D01*
G54D19*
X672519Y546588D02*
X672519Y528810D01*
G54D19*
X677852Y528810D02*
X667185Y528810D01*
G54D19*
X652963Y546588D02*
X662296Y546588D01*
X662296Y528810D01*
X652963Y528810D01*
G54D19*
X662296Y537699D02*
X652963Y537699D01*
G54D19*
X560214Y766389D02*
X554881Y766389D01*
X554881Y771944D01*
X556214Y774166D01*
X558881Y775278D01*
X561548Y775278D01*
X564214Y774167D01*
X565548Y771944D01*
X565548Y760833D01*
X564214Y758611D01*
X561548Y757500D01*
X558881Y757500D01*
X556214Y758611D01*
X554881Y760833D01*
G54D19*
X549992Y775278D02*
X549992Y757500D01*
X539325Y775278D01*
X539325Y757500D01*
G54D19*
X534436Y775278D02*
X534436Y757500D01*
X527769Y757500D01*
X525102Y758611D01*
X523769Y760833D01*
X523769Y771944D01*
X525102Y774166D01*
X527769Y775278D01*
X534436Y775278D01*
G54D19*
X565548Y732100D02*
X558881Y749878D01*
X552214Y732100D01*
G54D19*
X536659Y746544D02*
X537992Y748766D01*
X540659Y749878D01*
X543326Y749878D01*
X545992Y748766D01*
X547326Y746544D01*
X547326Y735433D01*
X545992Y733211D01*
X543326Y732100D01*
X540659Y732100D01*
X537992Y733211D01*
X536659Y735433D01*
G54D19*
X521103Y746544D02*
X522436Y748766D01*
X525103Y749878D01*
X527770Y749878D01*
X530436Y748766D01*
X531770Y746544D01*
X531770Y735433D01*
X530436Y733211D01*
X527770Y732100D01*
X525103Y732100D01*
X522436Y733211D01*
X521103Y735433D01*
G54D19*
X565548Y692569D02*
X564214Y694791D01*
X561548Y695903D01*
X558881Y695903D01*
X556214Y694791D01*
X554881Y692569D01*
X554881Y690347D01*
X556214Y688125D01*
X558881Y687014D01*
X561548Y687014D01*
X564214Y685902D01*
X565548Y683680D01*
X565548Y681458D01*
X564214Y679236D01*
X561548Y678125D01*
X558881Y678125D01*
X556214Y679236D01*
X554881Y681458D01*
G54D19*
X549992Y695903D02*
X549992Y678125D01*
X543325Y678125D01*
X540658Y679236D01*
X539325Y681458D01*
X539325Y692569D01*
X540658Y694791D01*
X543325Y695903D01*
X549992Y695903D01*
G54D19*
X534436Y695903D02*
X527769Y678125D01*
X521102Y695902D01*
G54D19*
X531769Y689236D02*
X523769Y689236D01*
G54D19*
X565548Y717969D02*
X564214Y720191D01*
X561548Y721303D01*
X558881Y721303D01*
X556214Y720192D01*
X554881Y717969D01*
X554881Y715747D01*
X556214Y713525D01*
X558881Y712414D01*
X561548Y712414D01*
X564214Y711303D01*
X565548Y709080D01*
X565548Y706858D01*
X564214Y704636D01*
X561548Y703525D01*
X558881Y703525D01*
X556214Y704636D01*
X554881Y706858D01*
G54D19*
X539325Y717969D02*
X540658Y720192D01*
X543325Y721303D01*
X545992Y721303D01*
X548658Y720191D01*
X549992Y717969D01*
X549992Y706858D01*
X548658Y704636D01*
X545992Y703525D01*
X543325Y703525D01*
X540658Y704636D01*
X539325Y706858D01*
G54D19*
X534436Y703525D02*
X534435Y721303D01*
X525102Y721303D01*
G54D19*
X448459Y769334D02*
X437348Y769334D01*
X435125Y770668D01*
X434014Y773334D01*
X434014Y776001D01*
X435125Y778668D01*
X437348Y780001D01*
X448459Y780001D01*
X450681Y778668D01*
X451792Y776001D01*
X451792Y773334D01*
X450681Y770668D01*
X448459Y769334D01*
G54D19*
X451792Y764445D02*
X434014Y764445D01*
X434014Y755112D01*
G54D19*
X434014Y740890D02*
X434014Y750223D01*
X451792Y750223D01*
X451792Y740889D01*
G54D19*
X442903Y750223D02*
X442903Y740890D01*
G54D19*
X434014Y736001D02*
X451792Y736001D01*
X451792Y729334D01*
X450681Y726668D01*
X448459Y725334D01*
X437348Y725334D01*
X435125Y726668D01*
X434014Y729334D01*
X434014Y736001D01*
G54D19*
X448459Y704622D02*
X437348Y704622D01*
X435125Y705956D01*
X434014Y708622D01*
X434014Y711289D01*
X435125Y713956D01*
X437348Y715289D01*
X448459Y715289D01*
X450681Y713956D01*
X451792Y711289D01*
X451792Y708622D01*
X450681Y705956D01*
X448459Y704622D01*
G54D19*
X434014Y699733D02*
X434014Y699733D01*
G54D19*
X437348Y694844D02*
X435125Y693510D01*
X434014Y690844D01*
X434014Y688177D01*
X435125Y685510D01*
X437348Y684177D01*
X442903Y684177D01*
X444014Y684177D01*
X441792Y688177D01*
X441792Y690844D01*
X442903Y693510D01*
X445125Y694844D01*
X448459Y694844D01*
X450681Y693510D01*
X451792Y690844D01*
X451792Y688177D01*
X450681Y685510D01*
X448459Y684177D01*
X442903Y684177D01*
G54D19*
X448459Y668621D02*
X450681Y669954D01*
X451792Y672621D01*
X451792Y675288D01*
X450681Y677954D01*
X448459Y679288D01*
X442903Y679288D01*
X441792Y679288D01*
X444014Y675288D01*
X444014Y672621D01*
X442903Y669954D01*
X440681Y668621D01*
X437348Y668621D01*
X435125Y669954D01*
X434014Y672621D01*
X434014Y675288D01*
X435125Y677954D01*
X437348Y679288D01*
X442903Y679288D01*
G54D19*
X451792Y663732D02*
X447348Y663732D01*
G54D19*
X451792Y659732D02*
X447348Y659732D01*
G54D15*
X662614Y887951D02*
X662614Y894351D01*
X656314Y900651D01*
X643514Y900651D01*
X637214Y894351D01*
X637214Y881551D01*
X643514Y875251D01*
X656314Y875251D01*
X662614Y881551D01*
X662614Y887951D01*
G54D15*
X662614Y862551D02*
X662614Y868951D01*
X656314Y875251D01*
X643514Y875251D01*
X637214Y868951D01*
X637214Y856151D01*
X643514Y849851D01*
X656314Y849851D01*
X662614Y856151D01*
X662614Y862551D01*
G54D15*
X662614Y837151D02*
X662614Y843551D01*
X656314Y849851D01*
X643514Y849851D01*
X637214Y843551D01*
X637214Y830751D01*
X643514Y824451D01*
X656314Y824451D01*
X662614Y830751D01*
X662614Y837151D01*
G54D15*
X662614Y811751D02*
X662614Y818151D01*
X656314Y824451D01*
X643514Y824451D01*
X637214Y818151D01*
X637214Y805351D01*
X643514Y799051D01*
X656314Y799051D01*
X662614Y805351D01*
X662614Y811751D01*
G54D15*
X662614Y786351D02*
X662614Y792751D01*
X656314Y799051D01*
X643514Y799051D01*
X637214Y792751D01*
X637214Y779951D01*
X643514Y773651D01*
X656314Y773651D01*
X662614Y779951D01*
X662614Y786351D01*
G54D15*
X662614Y760951D02*
X662614Y767351D01*
X656314Y773651D01*
X643514Y773651D01*
X637214Y767351D01*
X637214Y754551D01*
X643514Y748251D01*
X656314Y748251D01*
X662614Y754551D01*
X662614Y760951D01*
G54D14*
X689614Y901651D02*
X689614Y901651D01*
G54D14*
X670114Y901651D02*
X670114Y901651D01*
G54D16*
X999164Y945101D02*
X999164Y706976D01*
X630864Y706976D01*
X630864Y948276D01*
X995989Y945101D01*
G54D19*
X705978Y759949D02*
X700644Y759949D01*
X700644Y765504D01*
X701978Y767727D01*
X704644Y768838D01*
X707311Y768838D01*
X709978Y767727D01*
X711311Y765504D01*
X711311Y754394D01*
X709978Y752171D01*
X707311Y751060D01*
X704644Y751060D01*
X701978Y752171D01*
X700644Y754394D01*
G54D19*
X695755Y768838D02*
X695755Y751060D01*
X685088Y768838D01*
X685088Y751060D01*
G54D19*
X680199Y768838D02*
X680199Y751060D01*
X673532Y751060D01*
X670866Y752171D01*
X669532Y754394D01*
X669532Y765504D01*
X670866Y767727D01*
X673532Y768838D01*
X680199Y768838D01*
G54D19*
X714486Y779635D02*
X707820Y797413D01*
X701153Y779635D01*
G54D19*
X685598Y794080D02*
X686931Y796302D01*
X689598Y797413D01*
X692264Y797413D01*
X694931Y796302D01*
X696264Y794080D01*
X696264Y782968D01*
X694931Y780746D01*
X692264Y779635D01*
X689598Y779635D01*
X686931Y780746D01*
X685598Y782968D01*
G54D19*
X670042Y794080D02*
X671375Y796302D01*
X674042Y797413D01*
X676708Y797413D01*
X679375Y796302D01*
X680708Y794080D01*
X680708Y782969D01*
X679375Y780746D01*
X676708Y779635D01*
X674042Y779635D01*
X671375Y780746D01*
X670042Y782968D01*
G54D19*
X716278Y819822D02*
X716278Y802045D01*
X709612Y813156D01*
X702945Y802045D01*
X702945Y819822D01*
G54D19*
X698056Y819823D02*
X698056Y802045D01*
G54D19*
X693167Y816489D02*
X691834Y818711D01*
X689167Y819822D01*
X686501Y819822D01*
X683834Y818711D01*
X682501Y816489D01*
X682501Y814267D01*
X683834Y812045D01*
X686501Y810934D01*
X689167Y810934D01*
X691834Y809822D01*
X693168Y807600D01*
X693167Y805378D01*
X691834Y803156D01*
X689168Y802045D01*
X686501Y802045D01*
X683834Y803156D01*
X682501Y805378D01*
G54D19*
X666945Y805378D02*
X666945Y816489D01*
X668278Y818711D01*
X670945Y819822D01*
X673612Y819822D01*
X676278Y818711D01*
X677611Y816489D01*
X677611Y805378D01*
X676278Y803156D01*
X673612Y802045D01*
X670945Y802045D01*
X668278Y803156D01*
X666945Y805378D01*
G54D19*
X719453Y845223D02*
X719453Y827445D01*
X712787Y838556D01*
X706120Y827445D01*
X706120Y845223D01*
G54D19*
X690565Y830778D02*
X690565Y841889D01*
X691898Y844111D01*
X694565Y845222D01*
X697231Y845222D01*
X699898Y844111D01*
X701231Y841889D01*
X701231Y830778D01*
X699898Y828556D01*
X697232Y827445D01*
X694565Y827445D01*
X691898Y828556D01*
X690565Y830778D01*
G54D19*
X685675Y841889D02*
X684342Y844111D01*
X681676Y845222D01*
X679009Y845222D01*
X676342Y844111D01*
X675009Y841889D01*
X675009Y839667D01*
X676342Y837445D01*
X679009Y836334D01*
X681676Y836334D01*
X684342Y835222D01*
X685675Y833000D01*
X685675Y830778D01*
X684342Y828556D01*
X681676Y827445D01*
X679009Y827445D01*
X676342Y828556D01*
X675009Y830778D01*
G54D19*
X670119Y845222D02*
X670120Y827445D01*
G54D19*
X709928Y867289D02*
X708595Y869511D01*
X705928Y870623D01*
X703262Y870622D01*
X700595Y869511D01*
X699262Y867289D01*
X699262Y865067D01*
X700595Y862845D01*
X703262Y861734D01*
X705928Y861734D01*
X708595Y860622D01*
X709928Y858400D01*
X709928Y856178D01*
X708595Y853956D01*
X705928Y852845D01*
X703262Y852845D01*
X700595Y853956D01*
X699262Y856178D01*
G54D19*
X683706Y867289D02*
X685039Y869511D01*
X687706Y870622D01*
X690372Y870623D01*
X693039Y869511D01*
X694372Y867289D01*
X694372Y856178D01*
X693039Y853956D01*
X690372Y852845D01*
X687706Y852845D01*
X685039Y853956D01*
X683706Y856178D01*
G54D19*
X678816Y870622D02*
X678816Y852845D01*
G54D19*
X678816Y865067D02*
X668150Y852845D01*
G54D19*
X674816Y861734D02*
X668150Y870623D01*
G54D19*
X683387Y895864D02*
X684720Y898086D01*
X687387Y899198D01*
X690053Y899198D01*
X692720Y898086D01*
X694053Y895864D01*
X694054Y884753D01*
X692720Y882531D01*
X690053Y881420D01*
X687387Y881420D01*
X684720Y882531D01*
X683387Y884753D01*
G54D19*
X678497Y895864D02*
X677164Y898086D01*
X674497Y899198D01*
X671831Y899198D01*
X669164Y898086D01*
X667831Y895864D01*
X667831Y893642D01*
X669164Y891420D01*
X671831Y890309D01*
X674497Y890309D01*
X677164Y889198D01*
X678497Y886975D01*
X678498Y884753D01*
X677164Y882531D01*
X674497Y881420D01*
X671831Y881420D01*
X669164Y882531D01*
X667831Y884753D01*
G54D19*
X834223Y872076D02*
X832000Y870742D01*
X830889Y868076D01*
X830889Y865409D01*
X832000Y862742D01*
X834223Y861409D01*
X836445Y861409D01*
X838667Y862742D01*
X839778Y865409D01*
X839778Y868076D01*
X840889Y870742D01*
X843111Y872076D01*
X845334Y872076D01*
X847556Y870742D01*
X848667Y868076D01*
X848667Y865409D01*
X847556Y862742D01*
X845334Y861409D01*
G54D19*
X830889Y856520D02*
X848667Y856520D01*
X848667Y849853D01*
X847556Y847186D01*
X845334Y845853D01*
X834223Y845853D01*
X832000Y847186D01*
X830889Y849853D01*
X830889Y856520D01*
G54D19*
X834223Y825141D02*
X832000Y826474D01*
X830889Y829141D01*
X830889Y831808D01*
X832000Y834474D01*
X834223Y835808D01*
X845334Y835808D01*
X847556Y834474D01*
X848667Y831808D01*
X848667Y829141D01*
X847556Y826474D01*
X845334Y825141D01*
G54D19*
X830889Y820252D02*
X848667Y813585D01*
X830889Y806918D01*
G54D19*
X837556Y817585D02*
X837556Y809585D01*
G54D19*
X839778Y796696D02*
X837556Y792696D01*
X835334Y791363D01*
X830889Y791363D01*
G54D19*
X830889Y802030D02*
X848667Y802030D01*
X848667Y795363D01*
X847556Y792696D01*
X845334Y791363D01*
X843112Y791363D01*
X840889Y792696D01*
X839778Y795363D01*
X839778Y802030D01*
G54D19*
X830889Y786474D02*
X848667Y786474D01*
X848667Y779807D01*
X847556Y777140D01*
X845334Y775807D01*
X834223Y775807D01*
X832000Y777140D01*
X830889Y779807D01*
X830889Y786474D01*
G54D10*
X229089Y741101D02*
X229089Y709901D01*
X213489Y709901D01*
X213489Y741101D01*
X229089Y741101D01*
G54D10*
X203689Y741101D02*
X203689Y709901D01*
X188089Y709901D01*
X188089Y741101D01*
X203689Y741101D01*
G54D10*
X178289Y741101D02*
X178289Y709901D01*
X162689Y709901D01*
X162689Y741101D01*
X178289Y741101D01*
G54D10*
X152889Y741101D02*
X152889Y709901D01*
X137289Y709901D01*
X137289Y741101D01*
X152889Y741101D01*
G54D19*
X907089Y903826D02*
X924867Y903826D01*
X924867Y897159D01*
X923756Y894492D01*
X921534Y893159D01*
X910422Y893159D01*
X908200Y894492D01*
X907089Y897159D01*
X907089Y903826D01*
G54D19*
X908200Y880270D02*
X907089Y882403D01*
X907089Y885070D01*
X908200Y887736D01*
X910422Y888270D01*
X914200Y888270D01*
X916422Y886936D01*
X917089Y884270D01*
X916422Y881603D01*
X914867Y880270D01*
X912645Y880270D01*
X912645Y888270D01*
G54D19*
X907089Y875381D02*
X917089Y875381D01*
G54D19*
X914867Y875381D02*
X916422Y874048D01*
X917089Y871381D01*
X916423Y868714D01*
X914867Y867381D01*
X907089Y867381D01*
G54D19*
X907089Y862492D02*
X917089Y862492D01*
G54D19*
X920423Y862492D02*
X920423Y862492D01*
G54D19*
X908200Y857603D02*
X907089Y854936D01*
X907089Y852270D01*
X908200Y849603D01*
X910422Y849603D01*
X911534Y850936D01*
X912645Y856270D01*
X913756Y857603D01*
X915978Y857603D01*
X917089Y854936D01*
X917089Y852270D01*
X915978Y849603D01*
G54D19*
X907089Y839558D02*
X924867Y839558D01*
X924867Y832891D01*
X923756Y830224D01*
X921534Y828891D01*
X919312Y828891D01*
X917089Y830224D01*
X915978Y832891D01*
X915978Y839558D01*
G54D19*
X915978Y824002D02*
X917089Y821335D01*
X917089Y818135D01*
X914867Y816002D01*
X907089Y816002D01*
G54D19*
X910422Y816002D02*
X912645Y817335D01*
X913089Y820002D01*
X912645Y822668D01*
X910422Y824002D01*
X908200Y823468D01*
X907089Y821335D01*
X907089Y820002D01*
X907089Y819468D01*
X908200Y817335D01*
X910422Y816002D01*
G54D19*
X907089Y811113D02*
X917089Y811113D01*
G54D19*
X914867Y811113D02*
X917089Y808446D01*
X917089Y805780D01*
G54D19*
X917089Y800891D02*
X907089Y795558D01*
X917089Y790224D01*
G54D19*
X907089Y795558D02*
X903756Y796891D01*
X902645Y798224D01*
X902645Y799558D01*
G54D19*
X908200Y785335D02*
X907089Y782668D01*
X907089Y780001D01*
X908200Y777335D01*
X910422Y777335D01*
X911534Y778668D01*
X912645Y784002D01*
X913756Y785335D01*
X915978Y785335D01*
X917089Y782668D01*
X917089Y780002D01*
X915978Y777335D01*
G54D19*
X907089Y772446D02*
X924867Y772446D01*
G54D19*
X914200Y772446D02*
X916422Y771112D01*
X917089Y768446D01*
X916423Y765779D01*
X914200Y764446D01*
X907089Y764446D01*
G54D19*
X908200Y751557D02*
X907089Y753690D01*
X907089Y756357D01*
X908200Y759024D01*
X910422Y759557D01*
X914200Y759557D01*
X916423Y758223D01*
X917089Y755557D01*
X916422Y752890D01*
X914867Y751557D01*
X912645Y751557D01*
X912645Y759557D01*
G54D19*
X917089Y746668D02*
X907089Y741334D01*
X917089Y736001D01*
M02*
