%FSLAX34Y34*%
%MOMM*%
%LNSILK_TOP*%
G71*
G01*
%ADD10C, 1.80*%
%ADD11C, 1.90*%
%ADD12C, 2.20*%
%ADD13C, 2.90*%
%ADD14C, 0.70*%
%ADD15C, 1.00*%
%LPD*%
X34925Y717549D02*
G54D10*
D03*
X60325Y717549D02*
G54D10*
D03*
X34925Y742949D02*
G54D10*
D03*
X60324Y742949D02*
G54D10*
D03*
X34925Y768349D02*
G54D10*
D03*
X60325Y768349D02*
G54D10*
D03*
X34925Y793749D02*
G54D10*
D03*
X60325Y793749D02*
G54D10*
D03*
X34925Y819149D02*
G54D10*
D03*
X60325Y819149D02*
G54D10*
D03*
X34925Y844549D02*
G54D10*
D03*
X60325Y844549D02*
G54D10*
D03*
X34925Y869949D02*
G54D10*
D03*
X60325Y869949D02*
G54D10*
D03*
X34925Y920749D02*
G54D10*
D03*
X60325Y920749D02*
G54D10*
D03*
X34925Y615949D02*
G54D10*
D03*
X60325Y615949D02*
G54D10*
D03*
X34925Y641349D02*
G54D10*
D03*
X60325Y641349D02*
G54D10*
D03*
X34925Y666749D02*
G54D10*
D03*
X60325Y666749D02*
G54D10*
D03*
X34925Y692149D02*
G54D10*
D03*
X60325Y692149D02*
G54D10*
D03*
X34925Y514349D02*
G54D10*
D03*
X60325Y514349D02*
G54D10*
D03*
X34925Y539749D02*
G54D10*
D03*
X60325Y539749D02*
G54D10*
D03*
X34925Y565149D02*
G54D10*
D03*
X60325Y565149D02*
G54D10*
D03*
X34925Y590549D02*
G54D10*
D03*
X60325Y590549D02*
G54D10*
D03*
X238125Y488949D02*
G54D10*
D03*
X263525Y488949D02*
G54D10*
D03*
X288925Y488949D02*
G54D10*
D03*
X314325Y488949D02*
G54D10*
D03*
X136525Y488949D02*
G54D10*
D03*
X161925Y488949D02*
G54D10*
D03*
X187325Y488949D02*
G54D10*
D03*
X212725Y488949D02*
G54D10*
D03*
X187325Y971549D02*
G54D10*
D03*
X212725Y971549D02*
G54D10*
D03*
X238125Y971549D02*
G54D10*
D03*
X263525Y971549D02*
G54D10*
D03*
X85725Y971549D02*
G54D10*
D03*
X111125Y971549D02*
G54D10*
D03*
X136525Y971549D02*
G54D10*
D03*
X161925Y971549D02*
G54D10*
D03*
X466725Y488949D02*
G54D10*
D03*
X492125Y488949D02*
G54D10*
D03*
X517525Y488949D02*
G54D10*
D03*
X542925Y488949D02*
G54D10*
D03*
X365125Y488949D02*
G54D10*
D03*
X390525Y488949D02*
G54D10*
D03*
X415925Y488949D02*
G54D10*
D03*
X441325Y488949D02*
G54D10*
D03*
X682625Y488949D02*
G54D10*
D03*
X708025Y488949D02*
G54D10*
D03*
X733425Y488949D02*
G54D10*
D03*
X758825Y488949D02*
G54D10*
D03*
X581025Y488949D02*
G54D10*
D03*
X606425Y488949D02*
G54D10*
D03*
X631825Y488949D02*
G54D10*
D03*
X657225Y488949D02*
G54D10*
D03*
X415925Y971549D02*
G54D10*
D03*
X441325Y971549D02*
G54D10*
D03*
X466725Y971549D02*
G54D10*
D03*
X492125Y971549D02*
G54D10*
D03*
X314325Y971549D02*
G54D10*
D03*
X339725Y971549D02*
G54D10*
D03*
X365125Y971549D02*
G54D10*
D03*
X390525Y971549D02*
G54D10*
D03*
X644525Y971549D02*
G54D10*
D03*
X669925Y971549D02*
G54D10*
D03*
X542925Y971549D02*
G54D10*
D03*
X568325Y971549D02*
G54D10*
D03*
X593725Y971549D02*
G54D10*
D03*
X619125Y971549D02*
G54D10*
D03*
X34925Y895349D02*
G54D10*
D03*
X60325Y895349D02*
G54D10*
D03*
X34925Y488949D02*
G54D10*
D03*
X60325Y488949D02*
G54D10*
D03*
X784225Y488949D02*
G54D11*
D03*
X809625Y488949D02*
G54D11*
D03*
X586414Y764126D02*
G54D12*
D03*
X586414Y738726D02*
G54D12*
D03*
X586414Y713326D02*
G54D12*
D03*
X586414Y687926D02*
G54D12*
D03*
X262564Y827626D02*
G54D13*
D03*
X262664Y783226D02*
G54D13*
D03*
X205364Y783226D02*
G54D13*
D03*
X205364Y827626D02*
G54D13*
D03*
X262564Y668876D02*
G54D13*
D03*
X262664Y624476D02*
G54D13*
D03*
X205364Y624476D02*
G54D13*
D03*
X205364Y668876D02*
G54D13*
D03*
X160964Y827626D02*
G54D13*
D03*
X161064Y783226D02*
G54D13*
D03*
X103764Y783226D02*
G54D13*
D03*
X103764Y827626D02*
G54D13*
D03*
X160964Y668876D02*
G54D13*
D03*
X161064Y624476D02*
G54D13*
D03*
X103764Y624476D02*
G54D13*
D03*
X103764Y668876D02*
G54D13*
D03*
X630864Y665701D02*
G54D12*
D03*
X630864Y640301D02*
G54D12*
D03*
X630864Y614901D02*
G54D12*
D03*
X630864Y589501D02*
G54D12*
D03*
X630864Y564101D02*
G54D12*
D03*
X630864Y538701D02*
G54D12*
D03*
X649914Y887951D02*
G54D12*
D03*
X649914Y862551D02*
G54D12*
D03*
X649914Y837151D02*
G54D12*
D03*
X649914Y811751D02*
G54D12*
D03*
X649914Y786351D02*
G54D12*
D03*
X649914Y760951D02*
G54D12*
D03*
G54D14*
X586414Y687926D02*
X764214Y687926D01*
X783264Y668876D01*
X783264Y489910D01*
X784225Y488949D01*
G54D14*
X586414Y713326D02*
X770564Y713326D01*
X811839Y672051D01*
X811839Y491164D01*
X809625Y488949D01*
G54D15*
X103764Y827626D02*
X262564Y827626D01*
G54D15*
X103764Y624476D02*
X262664Y624476D01*
G54D15*
X60325Y920749D02*
X86891Y920749D01*
X103814Y903826D01*
X103814Y827676D01*
X103764Y827626D01*
X110164Y827626D01*
X129264Y808526D01*
X129264Y649776D01*
X103764Y624476D01*
G54D15*
X649914Y760951D02*
X589589Y760951D01*
X586414Y764126D01*
G54D15*
X586414Y764126D02*
X576889Y764126D01*
X557839Y745076D01*
X557839Y633951D01*
X576889Y614901D01*
X630864Y614901D01*
G54D15*
X568325Y971549D02*
X568325Y782215D01*
X586414Y764126D01*
X589589Y818101D02*
G54D11*
D03*
X589589Y840331D02*
G54D11*
D03*
X589589Y862551D02*
G54D11*
D03*
X589589Y884781D02*
G54D11*
D03*
G54D14*
X649914Y811751D02*
X595939Y811751D01*
X589589Y818101D01*
G54D14*
X649914Y837151D02*
X592764Y837151D01*
X589589Y840326D01*
G54D14*
X649914Y862551D02*
X589589Y862551D01*
G54D14*
X649914Y887951D02*
X592764Y887951D01*
X589589Y884776D01*
G54D14*
X630864Y564101D02*
X643564Y564101D01*
X656264Y551401D01*
X656264Y489909D01*
X657225Y488949D01*
G54D14*
X630864Y589501D02*
X618164Y589501D01*
X602289Y573626D01*
X602289Y532351D01*
X630864Y503776D01*
X630864Y489909D01*
X631825Y488949D01*
G54D14*
X34925Y869949D02*
X23391Y869949D01*
X14914Y878426D01*
X14914Y926051D01*
X27614Y938751D01*
X91114Y938751D01*
X122864Y907001D01*
X122864Y875251D01*
X135564Y862551D01*
X522914Y862551D01*
X545139Y840326D01*
X545139Y840326D02*
G54D10*
D03*
G54D15*
X630864Y614901D02*
X272239Y614901D01*
X262664Y624476D01*
M02*
